<?xml version="1.0" encoding="UTF-8" standalone="no"?>
<!DOCTYPE svg PUBLIC "-//W3C//DTD SVG 1.1//EN" "http://www.w3.org/Graphics/SVG/1.1/DTD/svg11.dtd">
<svg xmlns="http://www.w3.org/2000/svg" version="1.1" viewBox="0.00 0.00 1024.00 1024.00">
<g stroke-width="2.00" fill="none" stroke-linecap="butt">
<path stroke="#0d3a91" vector-effect="non-scaling-stroke" d="
  M 1023.57 0.97
  A 0.37 0.37 0.0 0 0 1023.20 0.60
  L 1023.08 0.60
  A 0.37 0.37 0.0 0 0 1022.71 0.97
  L 1022.71 1023.47
  A 0.37 0.37 0.0 0 0 1023.08 1023.84
  L 1023.20 1023.84
  A 0.37 0.37 0.0 0 0 1023.57 1023.47
  L 1023.57 0.97"
/>
<path stroke="#0d3a91" vector-effect="non-scaling-stroke" d="
  M 273.50 529.28
  Q 275.35 558.35 283.26 582.49
  Q 289.93 602.87 298.38 620.11
  Q 305.37 634.39 315.43 649.29"
/>
<path stroke="#83858f" vector-effect="non-scaling-stroke" d="
  M 315.43 649.29
  Q 328.60 668.77 346.97 687.52
  Q 392.65 734.10 454.14 751.10
  Q 483.87 759.32 517.57 759.76
  Q 519.36 759.78 519.44 759.82
  Q 520.54 760.29 521.50 759.89
  A 1.23 1.20 33.2 0 1 521.96 759.80
  Q 575.96 759.59 624.86 736.69
  C 686.09 708.01 734.14 653.48 755.36 589.30
  Q 769.70 545.95 767.26 499.00"
/>
<path stroke="#1a7f91" vector-effect="non-scaling-stroke" d="
  M 767.26 499.00
  Q 765.19 454.17 747.28 413.02
  Q 730.98 375.56 704.46 346.29
  Q 673.74 312.39 631.76 290.81"
/>
<path stroke="#83858f" vector-effect="non-scaling-stroke" d="
  M 631.76 290.81
  C 570.62 259.40 501.11 256.58 436.52 279.58
  C 366.60 304.47 310.10 362.38 285.92 431.85
  Q 269.75 478.29 273.50 529.28"
/>
<path stroke="#93f6fd" vector-effect="non-scaling-stroke" d="
  M 631.76 290.81
  Q 631.01 292.06 629.19 292.41"
/>
<path stroke="#86b2fd" vector-effect="non-scaling-stroke" d="
  M 629.19 292.41
  L 617.54 286.88"
/>
<path stroke="#93f6fd" vector-effect="non-scaling-stroke" d="
  M 617.54 286.88
  Q 608.47 282.60 603.80 280.91
  Q 577.28 271.33 549.08 268.65
  Q 546.51 268.41 544.92 268.48
  C 543.47 268.55 540.72 268.52 540.70 268.65
  A 0.10 0.10 0.0 0 0 540.79 268.76
  C 544.76 269.08 548.19 269.09 550.54 271.92"
/>
<path stroke="#83858f" vector-effect="non-scaling-stroke" d="
  M 550.54 271.92
  Q 541.92 271.07 533.25 271.03
  Q 515.48 270.95 497.20 272.09
  A 3.01 2.95 31.5 0 0 496.24 272.31
  Q 494.63 272.95 492.85 272.93
  Q 491.22 272.91 489.15 273.19
  Q 419.16 282.88 366.62 326.88
  Q 346.68 343.58 328.62 366.37"
/>
<path stroke="#86b2fd" vector-effect="non-scaling-stroke" d="
  M 328.62 366.37
  Q 324.30 367.70 320.68 372.70
  Q 311.22 385.77 309.91 387.66
  Q 308.97 389.00 304.80 396.59
  Q 296.29 412.07 292.75 420.43
  Q 285.26 438.14 280.63 457.22
  C 279.11 463.45 278.08 470.01 277.25 474.64
  C 274.10 492.29 273.52 510.47 274.57 528.78
  A 0.56 0.56 0.0 0 1 273.88 529.36
  L 273.50 529.28"
/>
<path stroke="#0d3a91" vector-effect="non-scaling-stroke" d="
  M 614.35 288.72
  Q 636.99 298.20 657.26 311.74
  Q 662.99 315.58 667.38 319.14
  Q 671.09 322.14 676.99 326.98
  C 678.58 328.28 680.72 329.56 682.34 331.14
  Q 689.03 337.66 692.47 341.08
  Q 711.04 359.60 724.47 381.08
  Q 732.59 394.06 738.49 407.02
  Q 742.82 416.52 748.08 431.00
  Q 751.42 440.21 753.68 449.17
  C 757.79 465.49 760.39 480.96 761.08 497.50
  Q 761.74 513.20 761.01 528.69"
/>
<path stroke="#146b91" vector-effect="non-scaling-stroke" d="
  M 761.01 528.69
  Q 759.60 550.64 754.10 571.80"
/>
<path stroke="#1a7f91" vector-effect="non-scaling-stroke" d="
  M 754.10 571.80
  Q 749.09 590.58 742.62 605.63
  Q 723.31 650.55 687.41 685.42
  Q 683.71 689.01 679.99 692.84"
/>
<path stroke="#83858f" vector-effect="non-scaling-stroke" d="
  M 679.99 692.84
  Q 634.77 732.64 575.86 747.07
  Q 548.36 753.81 520.26 753.57"
/>
<path stroke="#0d3a91" vector-effect="non-scaling-stroke" d="
  M 520.26 753.57
  Q 464.91 753.38 415.39 730.12
  Q 411.00 728.05 405.22 724.70
  Q 400.06 721.71 395.17 718.72
  Q 381.89 710.60 368.72 699.26
  Q 362.12 693.58 361.01 692.92
  A 3.07 2.97 84.0 0 1 360.22 692.26
  Q 357.60 689.22 355.23 687.65
  A 4.84 4.51 82.5 0 1 354.54 687.08
  Q 353.02 685.53 346.90 679.32
  Q 342.95 675.31 339.76 671.17
  Q 335.67 665.86 331.93 661.99
  A 4.69 4.64 8.7 0 1 331.26 661.09
  Q 330.12 659.11 328.35 657.33
  A 4.29 3.93 8.8 0 1 327.87 656.73
  Q 327.03 655.43 320.91 646.28
  Q 317.10 640.59 314.30 635.67
  Q 302.19 614.44 293.99 593.75
  C 291.15 586.56 288.93 577.95 286.62 569.39
  Q 285.30 564.52 284.64 561.37
  Q 281.45 546.26 280.42 538.21
  Q 279.21 528.69 279.07 518.24
  Q 278.88 503.96 279.44 498.26
  Q 280.48 487.64 280.92 480.50
  C 281.44 472.06 283.42 464.98 284.99 457.07
  C 285.98 452.10 287.85 447.19 289.22 442.20
  Q 290.56 437.36 292.88 431.17
  Q 305.90 396.27 328.62 366.37"
/>
<path stroke="#86b2fd" vector-effect="non-scaling-stroke" d="
  M 520.26 753.57
  L 518.86 753.93
  A 0.18 0.18 0.0 0 0 518.89 754.28
  L 529.59 755.34
  A 0.05 0.05 0.0 0 1 529.60 755.44
  Q 526.14 756.51 523.18 756.40
  A 0.20 0.19 54.4 0 0 523.12 756.78
  Q 523.86 757.01 524.87 756.84
  L 524.87 756.85
  A 0.02 0.01 -0.0 0 1 524.85 756.86
  Q 507.22 757.07 498.31 756.38
  Q 460.26 753.42 425.09 739.10
  Q 411.27 733.48 398.83 726.09
  Q 383.36 716.92 374.33 709.90
  Q 340.80 683.85 316.15 648.33
  A 0.29 0.29 0.0 0 0 315.62 648.55
  Q 315.67 648.80 315.43 649.29"
/>
<path stroke="#93f6fd" vector-effect="non-scaling-stroke" d="
  M 767.26 499.00
  Q 766.29 496.87 765.49 499.96
  Q 765.14 501.31 765.13 503.32
  Q 765.11 513.94 764.78 524.55"
/>
<path stroke="#1dacff" vector-effect="non-scaling-stroke" d="
  M 629.19 292.41
  C 635.09 295.44 640.09 298.53 646.29 302.08
  Q 653.14 305.99 656.77 308.50
  Q 673.48 319.99 681.20 327.17
  Q 682.89 328.75 683.68 329.40
  Q 691.47 335.86 698.88 344.12
  Q 710.70 357.31 712.72 359.76
  C 720.66 369.34 729.81 383.43 736.60 396.38
  Q 743.12 408.83 743.82 410.54
  C 750.15 425.97 755.17 439.56 758.61 454.74
  Q 762.32 471.07 762.79 475.75
  Q 764.64 494.33 764.66 506.75
  Q 764.67 520.54 764.78 524.55"
/>
<path stroke="#86b2fd" vector-effect="non-scaling-stroke" d="
  M 764.78 524.55
  L 763.83 539.21"
/>
<path stroke="#1798ff" vector-effect="non-scaling-stroke" d="
  M 763.83 539.21
  L 761.01 528.69"
/>
<path stroke="#1dacff" vector-effect="non-scaling-stroke" d="
  M 617.54 286.88
  Q 616.17 286.31 615.04 286.33
  A 0.40 0.40 0.0 0 0 614.85 287.08
  L 616.30 287.92
  A 0.28 0.27 -26.8 0 1 616.13 288.43
  Q 615.15 288.33 614.35 288.72"
/>
<path stroke="#1a7f91" vector-effect="non-scaling-stroke" d="
  M 614.35 288.72
  Q 583.74 275.69 550.54 271.92"
/>
<path stroke="#24dcff" vector-effect="non-scaling-stroke" d="
  M 758.31 569.75
  Q 755.88 568.62 754.10 571.80"
/>
<path stroke="#93f6fd" vector-effect="non-scaling-stroke" d="
  M 679.99 692.84
  Q 687.02 691.26 692.08 684.29
  A 3.63 3.33 -3.3 0 1 692.77 683.58
  Q 694.76 682.03 696.42 680.18
  Q 706.20 669.24 716.64 656.33
  Q 721.63 650.16 726.73 641.81
  Q 736.13 626.43 736.16 626.39
  C 738.66 622.65 740.08 618.54 741.98 614.75
  Q 744.00 610.72 745.94 605.82
  Q 747.90 600.86 749.70 596.31
  Q 754.88 583.25 758.31 569.75"
/>
<path stroke="#8ce2fd" vector-effect="non-scaling-stroke" d="
  M 758.31 569.75
  Q 762.08 554.26 763.83 539.21"
/>
<path stroke="#146b91" vector-effect="non-scaling-stroke" d="
  M 540.71 432.54
  L 540.82 535.54"
/>
<path stroke="#0d3a91" vector-effect="non-scaling-stroke" d="
  M 540.82 535.54
  L 540.94 602.64
  A 2.51 2.48 30.6 0 0 541.26 603.86
  Q 544.91 610.37 551.03 606.55
  Q 565.90 597.28 580.84 588.02"
/>
<path stroke="#146b91" vector-effect="non-scaling-stroke" d="
  M 580.84 588.02
  Q 592.97 580.30 605.35 572.86
  C 614.66 567.26 621.12 558.00 621.05 547.50
  Q 620.93 529.73 620.93 511.95"
/>
<path stroke="#1a7f91" vector-effect="non-scaling-stroke" d="
  M 620.93 511.95
  Q 621.05 433.87 620.89 355.78
  Q 620.87 345.66 619.67 342.14
  C 616.54 332.92 609.64 325.95 600.14 322.61
  Q 595.76 321.07 586.60 321.28
  Q 576.01 321.53 549.56 321.35
  C 542.41 321.30 540.63 329.04 540.61 334.75
  Q 540.51 367.03 540.71 432.54"
/>
<path stroke="#24dcff" vector-effect="non-scaling-stroke" d="
  M 620.93 511.95
  L 620.52 518.52
  A 0.16 0.16 0.0 0 1 620.23 518.59
  Q 611.31 503.55 600.51 492.05
  Q 592.39 483.41 561.96 453.40
  C 556.69 448.20 549.87 442.63 541.64 444.55
  A 0.42 0.41 82.1 0 1 541.13 444.16
  L 540.71 432.54"
/>
<path stroke="#1798ff" vector-effect="non-scaling-stroke" d="
  M 580.84 588.02
  Q 564.37 578.90 551.51 565.26
  Q 547.66 561.16 545.80 557.39
  Q 543.00 551.71 541.09 544.18
  A 4.39 4.10 -54.4 0 1 540.97 543.26
  L 540.82 535.54"
/>
<path stroke="#0d3a91" vector-effect="non-scaling-stroke" d="
  M 431.18 436.30
  C 424.19 443.65 422.28 451.96 422.88 462.30
  Q 422.89 462.44 423.13 664.75
  C 423.15 678.02 434.07 688.87 446.12 691.93
  Q 449.78 692.86 466.98 692.83
  Q 489.61 692.78 493.57 692.88
  Q 500.44 693.05 503.28 688.29
  Q 504.85 685.67 504.84 677.94
  Q 504.77 585.41 504.87 493.02"
/>
<path stroke="#146b91" vector-effect="non-scaling-stroke" d="
  M 504.87 493.02
  Q 504.84 491.45 504.84 490.00
  Q 504.96 409.35 505.01 404.00
  Q 505.03 400.51 504.01 398.96
  Q 501.68 395.44 498.04 395.19
  Q 496.22 395.07 491.52 397.97
  Q 457.39 419.08 441.69 428.43
  Q 435.49 432.12 431.18 436.30"
/>
<path stroke="#1798ff" vector-effect="non-scaling-stroke" d="
  M 504.87 493.02
  C 491.99 484.41 482.68 476.92 470.12 466.75
  C 457.67 456.67 444.09 446.57 431.18 436.30"
/>
</g>
<path fill="#0a0d23" d="
  M 1024.00 0.00
  L 1024.00 1024.00
  L 0.00 1024.00
  L 0.00 0.00
  L 1024.00 0.00
  Z
  M 1023.57 0.97
  A 0.37 0.37 0.0 0 0 1023.20 0.60
  L 1023.08 0.60
  A 0.37 0.37 0.0 0 0 1022.71 0.97
  L 1022.71 1023.47
  A 0.37 0.37 0.0 0 0 1023.08 1023.84
  L 1023.20 1023.84
  A 0.37 0.37 0.0 0 0 1023.57 1023.47
  L 1023.57 0.97
  Z
  M 273.50 529.28
  Q 275.35 558.35 283.26 582.49
  Q 289.93 602.87 298.38 620.11
  Q 305.37 634.39 315.43 649.29
  Q 328.60 668.77 346.97 687.52
  Q 392.65 734.10 454.14 751.10
  Q 483.87 759.32 517.57 759.76
  Q 519.36 759.78 519.44 759.82
  Q 520.54 760.29 521.50 759.89
  A 1.23 1.20 33.2 0 1 521.96 759.80
  Q 575.96 759.59 624.86 736.69
  C 686.09 708.01 734.14 653.48 755.36 589.30
  Q 769.70 545.95 767.26 499.00
  Q 765.19 454.17 747.28 413.02
  Q 730.98 375.56 704.46 346.29
  Q 673.74 312.39 631.76 290.81
  C 570.62 259.40 501.11 256.58 436.52 279.58
  C 366.60 304.47 310.10 362.38 285.92 431.85
  Q 269.75 478.29 273.50 529.28
  Z"
/>
<rect fill="#1067ff" x="1022.71" y="0.60" width="0.86" height="1023.24" rx="0.37"/>
<path fill="#0a0d23" d="
  M 631.76 290.81
  Q 631.01 292.06 629.19 292.41
  L 617.54 286.88
  Q 608.47 282.60 603.80 280.91
  Q 577.28 271.33 549.08 268.65
  Q 546.51 268.41 544.92 268.48
  C 543.47 268.55 540.72 268.52 540.70 268.65
  A 0.10 0.10 0.0 0 0 540.79 268.76
  C 544.76 269.08 548.19 269.09 550.54 271.92
  Q 541.92 271.07 533.25 271.03
  Q 515.48 270.95 497.20 272.09
  A 3.01 2.95 31.5 0 0 496.24 272.31
  Q 494.63 272.95 492.85 272.93
  Q 491.22 272.91 489.15 273.19
  Q 419.16 282.88 366.62 326.88
  Q 346.68 343.58 328.62 366.37
  Q 324.30 367.70 320.68 372.70
  Q 311.22 385.77 309.91 387.66
  Q 308.97 389.00 304.80 396.59
  Q 296.29 412.07 292.75 420.43
  Q 285.26 438.14 280.63 457.22
  C 279.11 463.45 278.08 470.01 277.25 474.64
  C 274.10 492.29 273.52 510.47 274.57 528.78
  A 0.56 0.56 0.0 0 1 273.88 529.36
  L 273.50 529.28
  Q 269.75 478.29 285.92 431.85
  C 310.10 362.38 366.60 304.47 436.52 279.58
  C 501.11 256.58 570.62 259.40 631.76 290.81
  Z"
/>
<path fill="#2af0ff" d="
  M 617.54 286.88
  Q 616.17 286.31 615.04 286.33
  A 0.40 0.40 0.0 0 0 614.85 287.08
  L 616.30 287.92
  A 0.28 0.27 -26.8 0 1 616.13 288.43
  Q 615.15 288.33 614.35 288.72
  Q 583.74 275.69 550.54 271.92
  C 548.19 269.09 544.76 269.08 540.79 268.76
  A 0.10 0.10 0.0 0 1 540.70 268.65
  C 540.72 268.52 543.47 268.55 544.92 268.48
  Q 546.51 268.41 549.08 268.65
  Q 577.28 271.33 603.80 280.91
  Q 608.47 282.60 617.54 286.88
  Z"
/>
<path fill="#0a0d23" d="
  M 550.54 271.92
  Q 583.74 275.69 614.35 288.72
  Q 636.99 298.20 657.26 311.74
  Q 662.99 315.58 667.38 319.14
  Q 671.09 322.14 676.99 326.98
  C 678.58 328.28 680.72 329.56 682.34 331.14
  Q 689.03 337.66 692.47 341.08
  Q 711.04 359.60 724.47 381.08
  Q 732.59 394.06 738.49 407.02
  Q 742.82 416.52 748.08 431.00
  Q 751.42 440.21 753.68 449.17
  C 757.79 465.49 760.39 480.96 761.08 497.50
  Q 761.74 513.20 761.01 528.69
  Q 759.60 550.64 754.10 571.80
  Q 749.09 590.58 742.62 605.63
  Q 723.31 650.55 687.41 685.42
  Q 683.71 689.01 679.99 692.84
  Q 634.77 732.64 575.86 747.07
  Q 548.36 753.81 520.26 753.57
  Q 464.91 753.38 415.39 730.12
  Q 411.00 728.05 405.22 724.70
  Q 400.06 721.71 395.17 718.72
  Q 381.89 710.60 368.72 699.26
  Q 362.12 693.58 361.01 692.92
  A 3.07 2.97 84.0 0 1 360.22 692.26
  Q 357.60 689.22 355.23 687.65
  A 4.84 4.51 82.5 0 1 354.54 687.08
  Q 353.02 685.53 346.90 679.32
  Q 342.95 675.31 339.76 671.17
  Q 335.67 665.86 331.93 661.99
  A 4.69 4.64 8.7 0 1 331.26 661.09
  Q 330.12 659.11 328.35 657.33
  A 4.29 3.93 8.8 0 1 327.87 656.73
  Q 327.03 655.43 320.91 646.28
  Q 317.10 640.59 314.30 635.67
  Q 302.19 614.44 293.99 593.75
  C 291.15 586.56 288.93 577.95 286.62 569.39
  Q 285.30 564.52 284.64 561.37
  Q 281.45 546.26 280.42 538.21
  Q 279.21 528.69 279.07 518.24
  Q 278.88 503.96 279.44 498.26
  Q 280.48 487.64 280.92 480.50
  C 281.44 472.06 283.42 464.98 284.99 457.07
  C 285.98 452.10 287.85 447.19 289.22 442.20
  Q 290.56 437.36 292.88 431.17
  Q 305.90 396.27 328.62 366.37
  Q 346.68 343.58 366.62 326.88
  Q 419.16 282.88 489.15 273.19
  Q 491.22 272.91 492.85 272.93
  Q 494.63 272.95 496.24 272.31
  A 3.01 2.95 31.5 0 1 497.20 272.09
  Q 515.48 270.95 533.25 271.03
  Q 541.92 271.07 550.54 271.92
  Z
  M 540.71 432.54
  L 540.82 535.54
  L 540.94 602.64
  A 2.51 2.48 30.6 0 0 541.26 603.86
  Q 544.91 610.37 551.03 606.55
  Q 565.90 597.28 580.84 588.02
  Q 592.97 580.30 605.35 572.86
  C 614.66 567.26 621.12 558.00 621.05 547.50
  Q 620.93 529.73 620.93 511.95
  Q 621.05 433.87 620.89 355.78
  Q 620.87 345.66 619.67 342.14
  C 616.54 332.92 609.64 325.95 600.14 322.61
  Q 595.76 321.07 586.60 321.28
  Q 576.01 321.53 549.56 321.35
  C 542.41 321.30 540.63 329.04 540.61 334.75
  Q 540.51 367.03 540.71 432.54
  Z
  M 431.18 436.30
  C 424.19 443.65 422.28 451.96 422.88 462.30
  Q 422.89 462.44 423.13 664.75
  C 423.15 678.02 434.07 688.87 446.12 691.93
  Q 449.78 692.86 466.98 692.83
  Q 489.61 692.78 493.57 692.88
  Q 500.44 693.05 503.28 688.29
  Q 504.85 685.67 504.84 677.94
  Q 504.77 585.41 504.87 493.02
  Q 504.84 491.45 504.84 490.00
  Q 504.96 409.35 505.01 404.00
  Q 505.03 400.51 504.01 398.96
  Q 501.68 395.44 498.04 395.19
  Q 496.22 395.07 491.52 397.97
  Q 457.39 419.08 441.69 428.43
  Q 435.49 432.12 431.18 436.30
  Z"
/>
<path fill="#1067ff" d="
  M 617.54 286.88
  L 629.19 292.41
  C 635.09 295.44 640.09 298.53 646.29 302.08
  Q 653.14 305.99 656.77 308.50
  Q 673.48 319.99 681.20 327.17
  Q 682.89 328.75 683.68 329.40
  Q 691.47 335.86 698.88 344.12
  Q 710.70 357.31 712.72 359.76
  C 720.66 369.34 729.81 383.43 736.60 396.38
  Q 743.12 408.83 743.82 410.54
  C 750.15 425.97 755.17 439.56 758.61 454.74
  Q 762.32 471.07 762.79 475.75
  Q 764.64 494.33 764.66 506.75
  Q 764.67 520.54 764.78 524.55
  L 763.83 539.21
  L 761.01 528.69
  Q 761.74 513.20 761.08 497.50
  C 760.39 480.96 757.79 465.49 753.68 449.17
  Q 751.42 440.21 748.08 431.00
  Q 742.82 416.52 738.49 407.02
  Q 732.59 394.06 724.47 381.08
  Q 711.04 359.60 692.47 341.08
  Q 689.03 337.66 682.34 331.14
  C 680.72 329.56 678.58 328.28 676.99 326.98
  Q 671.09 322.14 667.38 319.14
  Q 662.99 315.58 657.26 311.74
  Q 636.99 298.20 614.35 288.72
  Q 615.15 288.33 616.13 288.43
  A 0.28 0.27 -26.8 0 0 616.30 287.92
  L 614.85 287.08
  A 0.40 0.40 0.0 0 1 615.04 286.33
  Q 616.17 286.31 617.54 286.88
  Z"
/>
<path fill="#2af0ff" d="
  M 767.26 499.00
  Q 766.29 496.87 765.49 499.96
  Q 765.14 501.31 765.13 503.32
  Q 765.11 513.94 764.78 524.55
  Q 764.67 520.54 764.66 506.75
  Q 764.64 494.33 762.79 475.75
  Q 762.32 471.07 758.61 454.74
  C 755.17 439.56 750.15 425.97 743.82 410.54
  Q 743.12 408.83 736.60 396.38
  C 729.81 383.43 720.66 369.34 712.72 359.76
  Q 710.70 357.31 698.88 344.12
  Q 691.47 335.86 683.68 329.40
  Q 682.89 328.75 681.20 327.17
  Q 673.48 319.99 656.77 308.50
  Q 653.14 305.99 646.29 302.08
  C 640.09 298.53 635.09 295.44 629.19 292.41
  Q 631.01 292.06 631.76 290.81
  Q 673.74 312.39 704.46 346.29
  Q 730.98 375.56 747.28 413.02
  Q 765.19 454.17 767.26 499.00
  Z"
/>
<path fill="#2af0ff" d="
  M 620.93 511.95
  L 620.52 518.52
  A 0.16 0.16 0.0 0 1 620.23 518.59
  Q 611.31 503.55 600.51 492.05
  Q 592.39 483.41 561.96 453.40
  C 556.69 448.20 549.87 442.63 541.64 444.55
  A 0.42 0.41 82.1 0 1 541.13 444.16
  L 540.71 432.54
  Q 540.51 367.03 540.61 334.75
  C 540.63 329.04 542.41 321.30 549.56 321.35
  Q 576.01 321.53 586.60 321.28
  Q 595.76 321.07 600.14 322.61
  C 609.64 325.95 616.54 332.92 619.67 342.14
  Q 620.87 345.66 620.89 355.78
  Q 621.05 433.87 620.93 511.95
  Z"
/>
<path fill="#1067ff" d="
  M 328.62 366.37
  Q 305.90 396.27 292.88 431.17
  Q 290.56 437.36 289.22 442.20
  C 287.85 447.19 285.98 452.10 284.99 457.07
  C 283.42 464.98 281.44 472.06 280.92 480.50
  Q 280.48 487.64 279.44 498.26
  Q 278.88 503.96 279.07 518.24
  Q 279.21 528.69 280.42 538.21
  Q 281.45 546.26 284.64 561.37
  Q 285.30 564.52 286.62 569.39
  C 288.93 577.95 291.15 586.56 293.99 593.75
  Q 302.19 614.44 314.30 635.67
  Q 317.10 640.59 320.91 646.28
  Q 327.03 655.43 327.87 656.73
  A 4.29 3.93 8.8 0 0 328.35 657.33
  Q 330.12 659.11 331.26 661.09
  A 4.69 4.64 8.7 0 0 331.93 661.99
  Q 335.67 665.86 339.76 671.17
  Q 342.95 675.31 346.90 679.32
  Q 353.02 685.53 354.54 687.08
  A 4.84 4.51 82.5 0 0 355.23 687.65
  Q 357.60 689.22 360.22 692.26
  A 3.07 2.97 84.0 0 0 361.01 692.92
  Q 362.12 693.58 368.72 699.26
  Q 381.89 710.60 395.17 718.72
  Q 400.06 721.71 405.22 724.70
  Q 411.00 728.05 415.39 730.12
  Q 464.91 753.38 520.26 753.57
  L 518.86 753.93
  A 0.18 0.18 0.0 0 0 518.89 754.28
  L 529.59 755.34
  A 0.05 0.05 0.0 0 1 529.60 755.44
  Q 526.14 756.51 523.18 756.40
  A 0.20 0.19 54.4 0 0 523.12 756.78
  Q 523.86 757.01 524.87 756.84
  L 524.87 756.85
  A 0.02 0.01 -0.0 0 1 524.85 756.86
  Q 507.22 757.07 498.31 756.38
  Q 460.26 753.42 425.09 739.10
  Q 411.27 733.48 398.83 726.09
  Q 383.36 716.92 374.33 709.90
  Q 340.80 683.85 316.15 648.33
  A 0.29 0.29 0.0 0 0 315.62 648.55
  Q 315.67 648.80 315.43 649.29
  Q 305.37 634.39 298.38 620.11
  Q 289.93 602.87 283.26 582.49
  Q 275.35 558.35 273.50 529.28
  L 273.88 529.36
  A 0.56 0.56 0.0 0 0 274.57 528.78
  C 273.52 510.47 274.10 492.29 277.25 474.64
  C 278.08 470.01 279.11 463.45 280.63 457.22
  Q 285.26 438.14 292.75 420.43
  Q 296.29 412.07 304.80 396.59
  Q 308.97 389.00 309.91 387.66
  Q 311.22 385.77 320.68 372.70
  Q 324.30 367.70 328.62 366.37
  Z"
/>
<path fill="#1dc8fe" d="
  M 504.87 493.02
  C 491.99 484.41 482.68 476.92 470.12 466.75
  C 457.67 456.67 444.09 446.57 431.18 436.30
  Q 435.49 432.12 441.69 428.43
  Q 457.39 419.08 491.52 397.97
  Q 496.22 395.07 498.04 395.19
  Q 501.68 395.44 504.01 398.96
  Q 505.03 400.51 505.01 404.00
  Q 504.96 409.35 504.84 490.00
  Q 504.84 491.45 504.87 493.02
  Z"
/>
<path fill="#1dc8fe" d="
  M 620.93 511.95
  Q 620.93 529.73 621.05 547.50
  C 621.12 558.00 614.66 567.26 605.35 572.86
  Q 592.97 580.30 580.84 588.02
  Q 564.37 578.90 551.51 565.26
  Q 547.66 561.16 545.80 557.39
  Q 543.00 551.71 541.09 544.18
  A 4.39 4.10 -54.4 0 1 540.97 543.26
  L 540.82 535.54
  L 540.71 432.54
  L 541.13 444.16
  A 0.42 0.41 82.1 0 0 541.64 444.55
  C 549.87 442.63 556.69 448.20 561.96 453.40
  Q 592.39 483.41 600.51 492.05
  Q 611.31 503.55 620.23 518.59
  A 0.16 0.16 0.0 0 0 620.52 518.52
  L 620.93 511.95
  Z"
/>
<path fill="#1067ff" d="
  M 431.18 436.30
  C 444.09 446.57 457.67 456.67 470.12 466.75
  C 482.68 476.92 491.99 484.41 504.87 493.02
  Q 504.77 585.41 504.84 677.94
  Q 504.85 685.67 503.28 688.29
  Q 500.44 693.05 493.57 692.88
  Q 489.61 692.78 466.98 692.83
  Q 449.78 692.86 446.12 691.93
  C 434.07 688.87 423.15 678.02 423.13 664.75
  Q 422.89 462.44 422.88 462.30
  C 422.28 451.96 424.19 443.65 431.18 436.30
  Z"
/>
<path fill="#0a0d23" d="
  M 767.26 499.00
  Q 769.70 545.95 755.36 589.30
  C 734.14 653.48 686.09 708.01 624.86 736.69
  Q 575.96 759.59 521.96 759.80
  A 1.23 1.20 33.2 0 0 521.50 759.89
  Q 520.54 760.29 519.44 759.82
  Q 519.36 759.78 517.57 759.76
  Q 483.87 759.32 454.14 751.10
  Q 392.65 734.10 346.97 687.52
  Q 328.60 668.77 315.43 649.29
  Q 315.67 648.80 315.62 648.55
  A 0.29 0.29 0.0 0 1 316.15 648.33
  Q 340.80 683.85 374.33 709.90
  Q 383.36 716.92 398.83 726.09
  Q 411.27 733.48 425.09 739.10
  Q 460.26 753.42 498.31 756.38
  Q 507.22 757.07 524.85 756.86
  A 0.02 0.01 -0.0 0 0 524.87 756.85
  L 524.87 756.84
  Q 523.86 757.01 523.12 756.78
  A 0.20 0.19 54.4 0 1 523.18 756.40
  Q 526.14 756.51 529.60 755.44
  A 0.05 0.05 0.0 0 0 529.59 755.34
  L 518.89 754.28
  A 0.18 0.18 0.0 0 1 518.86 753.93
  L 520.26 753.57
  Q 548.36 753.81 575.86 747.07
  Q 634.77 732.64 679.99 692.84
  Q 687.02 691.26 692.08 684.29
  A 3.63 3.33 -3.3 0 1 692.77 683.58
  Q 694.76 682.03 696.42 680.18
  Q 706.20 669.24 716.64 656.33
  Q 721.63 650.16 726.73 641.81
  Q 736.13 626.43 736.16 626.39
  C 738.66 622.65 740.08 618.54 741.98 614.75
  Q 744.00 610.72 745.94 605.82
  Q 747.90 600.86 749.70 596.31
  Q 754.88 583.25 758.31 569.75
  Q 762.08 554.26 763.83 539.21
  L 764.78 524.55
  Q 765.11 513.94 765.13 503.32
  Q 765.14 501.31 765.49 499.96
  Q 766.29 496.87 767.26 499.00
  Z"
/>
<path fill="#1dc8fe" d="
  M 763.83 539.21
  Q 762.08 554.26 758.31 569.75
  Q 755.88 568.62 754.10 571.80
  Q 759.60 550.64 761.01 528.69
  L 763.83 539.21
  Z"
/>
<path fill="#1067ff" d="
  M 580.84 588.02
  Q 565.90 597.28 551.03 606.55
  Q 544.91 610.37 541.26 603.86
  A 2.51 2.48 30.6 0 1 540.94 602.64
  L 540.82 535.54
  L 540.97 543.26
  A 4.39 4.10 -54.4 0 0 541.09 544.18
  Q 543.00 551.71 545.80 557.39
  Q 547.66 561.16 551.51 565.26
  Q 564.37 578.90 580.84 588.02
  Z"
/>
<path fill="#2af0ff" d="
  M 758.31 569.75
  Q 754.88 583.25 749.70 596.31
  Q 747.90 600.86 745.94 605.82
  Q 744.00 610.72 741.98 614.75
  C 740.08 618.54 738.66 622.65 736.16 626.39
  Q 736.13 626.43 726.73 641.81
  Q 721.63 650.16 716.64 656.33
  Q 706.20 669.24 696.42 680.18
  Q 694.76 682.03 692.77 683.58
  A 3.63 3.33 -3.3 0 0 692.08 684.29
  Q 687.02 691.26 679.99 692.84
  Q 683.71 689.01 687.41 685.42
  Q 723.31 650.55 742.62 605.63
  Q 749.09 590.58 754.10 571.80
  Q 755.88 568.62 758.31 569.75
  Z"
/>
</svg>
