<?xml version="1.0" encoding="UTF-8" standalone="no"?>
<!DOCTYPE svg PUBLIC "-//W3C//DTD SVG 1.1//EN" "http://www.w3.org/Graphics/SVG/1.1/DTD/svg11.dtd">
<svg xmlns="http://www.w3.org/2000/svg" version="1.1" viewBox="0.00 0.00 1024.00 1024.00">
<g stroke-width="2.00" fill="none" stroke-linecap="butt">
<path stroke="#0d1221" vector-effect="non-scaling-stroke" d="
  M 799.88 0.00
  Q 804.58 0.51 807.18 0.52
  Q 857.92 0.64 983.24 0.60
  Q 1002.77 0.59 1010.46 0.85
  C 1016.39 1.05 1022.21 1.16 1022.34 9.04
  Q 1022.52 19.61 1022.66 32.02
  Q 1022.70 35.54 1022.93 158.97
  C 1022.98 184.25 1022.94 210.71 1023.08 243.60
  C 1023.14 260.26 1022.74 275.79 1022.92 291.23
  Q 1023.10 306.66 1022.86 326.98
  C 1022.37 369.08 1023.13 425.15 1023.07 470.01
  Q 1022.91 586.80 1022.91 587.94
  Q 1022.81 657.96 1023.17 893.02
  Q 1023.21 918.10 1022.82 955.35
  C 1022.60 976.17 1023.03 998.61 1022.37 1022.09
  A 0.60 0.60 0.0 0 1 1021.77 1022.67
  Q 918.85 1022.54 751.13 1022.67
  C 678.95 1022.73 607.16 1022.55 520.43 1022.65
  C 509.62 1022.67 501.14 1022.26 491.46 1022.52
  Q 486.42 1022.65 469.72 1022.64
  Q 275.94 1022.56 93.40 1022.61
  Q 51.09 1022.62 8.50 1022.61
  Q 2.86 1022.61 0.00 1018.62"
/>
<path stroke="#0d1221" vector-effect="non-scaling-stroke" d="
  M 394.41 199.75
  C 368.95 201.32 344.17 207.48 321.45 218.96
  Q 305.53 226.99 289.85 239.11
  Q 282.07 245.13 269.97 257.31
  Q 264.47 262.85 259.61 269.23
  Q 250.36 281.39 250.07 281.83
  Q 235.53 303.31 228.98 321.65
  Q 221.18 343.47 218.47 359.25
  Q 215.72 375.23 216.07 400.00
  Q 216.07 400.09 216.08 400.19
  A 0.01 0.00 -43.6 0 0 216.09 400.19
  C 218.70 375.93 223.60 352.42 235.77 330.80
  Q 245.33 313.82 255.73 301.49
  C 262.53 293.43 270.75 285.92 278.68 279.70
  A 0.05 0.05 0.0 0 1 278.75 279.78
  Q 271.71 287.57 264.48 296.99
  Q 242.64 325.43 237.76 360.62
  C 236.49 369.72 236.09 380.96 236.10 390.26
  C 236.23 473.29 236.01 550.90 236.45 627.93
  Q 236.55 645.08 236.80 649.89
  Q 238.35 679.87 253.16 705.88
  C 263.28 723.65 274.58 738.12 289.10 751.39
  C 304.95 765.88 324.60 776.49 344.87 783.11
  Q 354.98 786.42 368.79 788.28
  A 0.39 0.39 0.0 0 0 369.21 788.01
  L 369.29 787.72
  A 0.50 0.50 0.0 0 0 368.88 787.08
  Q 344.75 783.97 320.97 771.87
  Q 318.28 770.50 317.11 769.61
  A 0.28 0.28 0.0 0 1 317.40 769.13
  C 322.09 771.29 325.52 773.15 330.26 774.77
  Q 342.92 779.10 345.21 779.77
  Q 355.10 782.65 369.35 784.79
  Q 372.79 785.31 376.63 785.48
  C 382.57 785.74 388.30 786.36 394.84 786.40
  Q 443.94 786.71 513.97 786.49
  C 552.24 786.38 592.21 786.65 636.07 786.59
  Q 672.86 786.54 705.21 770.45
  Q 724.96 760.63 741.96 746.50"
/>
<path stroke="#121829" vector-effect="non-scaling-stroke" d="
  M 741.96 746.50
  Q 769.40 724.56 786.03 693.52
  Q 787.22 691.31 790.85 683.52"
/>
<path stroke="#192132" vector-effect="non-scaling-stroke" d="
  M 790.85 683.52
  Q 795.53 672.92 798.55 661.97
  Q 801.29 652.04 801.38 642.24
  C 801.79 599.45 801.28 529.12 801.51 457.59
  C 801.56 441.02 801.41 422.70 801.71 405.24"
/>
<path stroke="#0d1221" vector-effect="non-scaling-stroke" d="
  M 801.71 405.24
  Q 801.87 398.11 802.05 390.98
  Q 802.11 388.61 802.61 387.22
  A 0.34 0.34 0.0 0 1 803.27 387.30
  Q 804.39 398.73 804.55 413.11
  Q 805.58 506.08 805.69 613.76
  Q 805.70 628.27 804.95 641.72
  C 802.84 679.70 786.15 716.92 761.40 745.25
  C 742.29 767.13 720.17 784.76 693.01 795.51
  C 675.65 802.38 655.16 805.57 635.86 806.47
  Q 617.98 807.29 596.73 808.57
  Q 582.19 809.44 570.50 809.44
  C 556.05 809.45 545.81 808.89 535.46 809.81"
/>
<path stroke="#162c4f" vector-effect="non-scaling-stroke" d="
  M 535.46 809.81
  L 388.06 809.81"
/>
<path stroke="#0d1221" vector-effect="non-scaling-stroke" d="
  M 388.06 809.81
  C 361.49 806.39 335.29 801.00 311.55 788.50
  C 265.20 764.09 237.34 720.79 221.98 671.72
  Q 219.38 663.41 218.39 655.76
  Q 217.01 644.98 216.98 639.42
  Q 216.74 588.76 217.05 534.75
  Q 217.09 528.08 216.87 518.03
  A 0.15 0.14 -82.1 0 0 216.77 517.89
  L 216.52 517.81
  A 0.29 0.29 0.0 0 0 216.14 518.07
  Q 215.68 524.99 215.81 535.02
  Q 215.98 547.82 215.74 627.36
  Q 215.68 645.12 216.90 654.22
  C 221.56 689.02 236.80 722.29 259.15 748.84
  C 270.74 762.60 282.46 774.24 297.27 784.25
  Q 322.65 801.40 353.77 809.50
  Q 358.81 810.82 369.41 812.12"
/>
<path stroke="#162c4f" vector-effect="non-scaling-stroke" d="
  M 369.41 812.12
  Q 373.35 811.62 377.00 811.64
  C 456.66 812.16 536.34 811.74 616.00 811.66"
/>
<path stroke="#192132" vector-effect="non-scaling-stroke" d="
  M 616.00 811.66
  Q 638.31 811.74 660.62 811.19
  Q 662.42 811.15 665.23 810.79
  Q 667.53 810.49 669.86 810.39"
/>
<path stroke="#121829" vector-effect="non-scaling-stroke" d="
  M 669.86 810.39
  Q 695.52 806.02 719.19 795.18
  C 724.41 792.79 728.64 789.97 732.90 787.68
  Q 737.25 785.35 742.85 781.45
  Q 762.15 768.04 777.18 751.44
  C 779.33 749.05 780.52 747.28 782.70 744.98
  Q 783.94 743.68 786.75 740.05
  Q 792.41 732.77 799.60 721.11
  Q 802.56 716.30 806.05 708.11
  Q 818.08 679.83 822.02 649.48
  Q 823.49 638.15 823.50 614.77
  Q 823.57 442.22 823.39 385.50
  Q 823.34 372.53 822.63 365.90
  Q 821.01 350.89 816.15 333.35
  Q 812.03 318.43 803.58 303.19"
/>
<path stroke="#192132" vector-effect="non-scaling-stroke" d="
  M 803.58 303.19
  C 799.49 294.06 793.90 286.44 788.22 278.27
  Q 785.51 274.37 783.63 272.10
  Q 769.45 254.93 758.45 245.17
  Q 736.95 226.08 710.05 214.00
  Q 699.79 209.40 685.71 206.10"
/>
<path stroke="#121829" vector-effect="non-scaling-stroke" d="
  M 685.71 206.10
  Q 672.21 202.02 662.98 201.19
  Q 654.05 200.38 651.11 199.81"
/>
<path stroke="#192132" vector-effect="non-scaling-stroke" d="
  M 651.11 199.81
  L 394.41 199.75"
/>
<path stroke="#1f2c3e" vector-effect="non-scaling-stroke" d="
  M 651.11 199.81
  Q 651.64 200.03 651.63 200.16
  A 0.53 0.53 0.0 0 1 651.10 200.68
  L 575.98 200.91"
/>
<path stroke="#1a2536" vector-effect="non-scaling-stroke" d="
  M 575.98 200.91
  L 394.55 200.62
  A 0.65 0.64 -9.5 0 1 393.94 200.19
  Q 393.90 200.10 394.41 199.75"
/>
<path stroke="#131d2d" vector-effect="non-scaling-stroke" d="
  M 575.98 200.91
  Q 556.58 201.96 537.14 202.00
  Q 533.04 202.00 528.70 202.70
  A 0.21 0.21 0.0 0 0 528.62 203.09
  Q 529.00 203.31 533.52 203.78
  C 540.61 204.52 551.53 205.19 558.99 205.43
  Q 605.62 206.94 634.63 209.23
  Q 645.60 210.10 657.80 211.94
  C 680.61 215.38 705.39 224.20 722.76 239.80"
/>
<path stroke="#5b8192" vector-effect="non-scaling-stroke" d="
  M 722.76 239.80
  Q 681.82 213.19 632.26 212.71"
/>
<path stroke="#0d1221" vector-effect="non-scaling-stroke" d="
  M 632.26 212.71
  Q 634.18 212.74 636.03 212.13
  A 0.32 0.32 0.0 0 0 636.03 211.53
  C 633.16 210.61 630.66 210.73 627.67 210.74
  Q 516.71 211.20 397.35 210.51
  A 0.63 0.63 0.0 0 0 396.75 210.95
  L 396.65 211.28
  A 0.73 0.72 -81.4 0 0 397.33 212.21
  L 415.29 212.52"
/>
<path stroke="#5b8192" vector-effect="non-scaling-stroke" d="
  M 415.29 212.52
  Q 407.65 212.86 400.00 212.84
  Q 394.13 212.82 382.28 214.40"
/>
<path stroke="#416884" vector-effect="non-scaling-stroke" d="
  M 382.28 214.40
  Q 363.34 217.04 345.80 224.60
  A 0.22 0.21 67.7 0 0 345.69 224.88
  L 345.69 224.89
  A 0.22 0.21 68.4 0 0 345.96 225.01
  Q 363.84 218.27 382.81 215.85"
/>
<path stroke="#5b8192" vector-effect="non-scaling-stroke" d="
  M 382.81 215.85
  Q 402.65 213.90 422.81 214.16"
/>
<path stroke="#1a2536" vector-effect="non-scaling-stroke" d="
  M 422.81 214.16
  Q 418.48 216.41 413.10 216.61
  Q 405.03 216.91 393.94 217.96"
/>
<path stroke="#131d2d" vector-effect="non-scaling-stroke" d="
  M 393.94 217.96
  Q 386.37 218.51 380.28 219.79
  Q 357.73 224.54 336.23 235.26
  Q 332.52 237.11 329.15 239.19
  C 322.66 243.20 317.81 245.79 312.19 250.16
  Q 300.82 258.99 291.49 267.84
  A 0.73 0.71 -36.3 0 0 291.35 268.69
  Q 295.86 277.31 299.77 282.38
  Q 315.18 302.36 327.91 322.06
  C 330.88 326.67 334.89 331.21 338.62 335.32
  C 343.50 340.71 346.88 346.66 349.89 351.73
  C 353.72 358.19 358.09 363.41 364.15 367.20
  C 372.75 372.57 378.75 370.82 383.96 362.22
  Q 389.12 353.69 392.09 349.00
  C 397.56 340.33 407.18 331.11 416.30 323.51
  A 2.91 2.88 11.6 0 1 416.96 323.08
  Q 423.41 319.90 430.59 318.87
  A 3.95 3.86 48.6 0 1 432.31 319.00
  L 443.60 322.41
  A 4.29 4.26 71.7 0 1 444.94 323.09
  Q 448.45 325.68 451.43 329.84
  Q 454.41 334.00 457.72 337.88
  C 465.41 346.90 474.18 345.13 483.87 341.64
  A 0.39 0.38 78.6 0 1 484.39 341.99
  L 484.99 359.71"
/>
<path stroke="#0d1221" vector-effect="non-scaling-stroke" d="
  M 484.99 359.71
  L 484.41 353.75
  A 0.22 0.22 0.0 0 0 484.03 353.62
  C 474.17 364.11 471.81 378.73 470.88 392.81
  C 468.66 426.46 468.71 455.97 469.18 495.69
  C 469.31 506.02 469.27 522.03 469.03 534.72
  Q 468.20 578.71 468.24 621.70
  C 468.25 636.40 467.92 651.94 473.29 664.60
  C 474.24 666.84 477.72 672.15 480.34 668.93
  Q 483.25 665.36 484.54 659.41
  A 4.46 4.42 51.1 0 0 484.63 658.52
  L 484.87 424.71"
/>
<path stroke="#131d2d" vector-effect="non-scaling-stroke" d="
  M 484.87 424.71
  C 485.29 458.10 485.29 484.53 486.12 524.89
  Q 486.22 529.84 487.07 534.34
  C 487.77 538.08 488.97 540.12 492.53 541.98
  C 498.70 545.19 503.70 549.08 509.27 554.71
  Q 523.91 569.49 527.82 573.08
  C 532.92 577.76 539.77 583.72 545.61 576.06
  A 0.82 0.78 -27.2 0 0 545.78 575.57
  C 546.04 551.97 545.48 502.03 546.12 462.72
  C 546.68 428.77 545.84 398.51 554.47 368.12
  Q 559.79 349.38 575.09 334.86"
/>
<path stroke="#5b8192" vector-effect="non-scaling-stroke" d="
  M 575.09 334.86
  Q 572.90 341.18 573.38 348.54"
/>
<path stroke="#0d1221" vector-effect="non-scaling-stroke" d="
  M 573.38 348.54
  L 572.67 343.39
  A 0.16 0.16 0.0 0 0 572.37 343.34
  Q 561.65 363.22 559.48 387.22
  Q 558.02 403.33 557.76 419.66
  Q 556.77 481.85 556.62 495.53
  C 556.36 519.83 557.29 548.86 557.05 571.66
  Q 556.78 598.44 555.85 641.92
  Q 555.49 658.93 558.30 674.08
  C 560.84 687.83 568.67 702.83 582.86 705.56
  C 596.60 708.21 606.75 699.29 614.07 688.70
  Q 615.57 686.53 615.99 683.60
  Q 616.92 677.19 616.75 670.72"
/>
<path stroke="#416884" vector-effect="non-scaling-stroke" d="
  M 616.75 670.72
  L 616.81 522.98"
/>
<path stroke="#5b8192" vector-effect="non-scaling-stroke" d="
  M 616.81 522.98
  L 616.92 347.04"
/>
<path stroke="#131d2d" vector-effect="non-scaling-stroke" d="
  M 616.92 347.04
  L 617.45 343.68
  A 0.13 0.13 0.0 0 1 617.70 343.66
  C 619.84 349.89 619.53 357.04 619.90 364.11
  A 1.05 1.04 11.5 0 0 620.49 365.00
  Q 625.13 367.20 628.66 363.82
  Q 631.70 360.90 636.70 354.14
  Q 639.56 350.27 646.05 343.15
  A 0.21 0.20 -24.6 0 1 646.41 343.28
  L 646.67 350.75"
/>
<path stroke="#0d1221" vector-effect="non-scaling-stroke" d="
  M 646.67 350.75
  Q 636.66 369.63 634.95 391.29
  Q 633.14 414.15 632.93 443.48
  Q 632.43 515.67 631.82 572.96
  Q 631.55 598.97 631.82 624.56
  C 631.95 637.59 632.86 652.78 638.17 664.97
  Q 640.27 669.79 646.21 675.18
  A 0.26 0.26 0.0 0 0 646.65 674.99
  L 647.16 545.21"
/>
<path stroke="#131d2d" vector-effect="non-scaling-stroke" d="
  M 647.16 545.21
  L 647.92 641.34
  A 3.04 2.98 -55.0 0 0 648.08 642.31
  C 651.21 651.46 654.93 657.21 662.43 664.98
  Q 670.94 673.78 672.12 675.09
  C 680.45 684.39 688.15 694.62 695.14 703.09
  Q 699.75 708.69 703.66 712.19
  C 716.49 723.71 728.83 735.56 741.96 746.50"
/>
<path stroke="#1f2c3e" vector-effect="non-scaling-stroke" d="
  M 685.71 206.10
  Q 693.92 211.15 702.99 214.40
  Q 710.76 217.18 713.83 218.73
  Q 724.51 224.13 729.52 227.67
  Q 742.69 236.99 745.08 238.77
  Q 748.13 241.04 755.66 247.97
  Q 764.31 255.94 766.00 257.48
  Q 773.95 264.70 778.34 270.39
  Q 788.90 284.07 801.53 302.27
  Q 802.29 303.38 803.58 303.19"
/>
<path stroke="#1f2c3e" vector-effect="non-scaling-stroke" d="
  M 669.86 810.39
  L 669.70 809.30"
/>
<path stroke="#131d2d" vector-effect="non-scaling-stroke" d="
  M 669.70 809.30
  Q 669.71 809.28 669.72 809.26"
/>
<path stroke="#121829" vector-effect="non-scaling-stroke" d="
  M 669.72 809.26
  Q 674.09 808.41 678.48 807.61
  Q 683.26 806.73 687.14 805.60
  Q 705.86 800.13 719.59 793.57
  Q 741.20 783.25 761.55 765.02"
/>
<path stroke="#131d2d" vector-effect="non-scaling-stroke" d="
  M 761.55 765.02
  L 777.37 749.02
  A 0.53 0.53 0.0 0 0 776.68 748.22
  C 771.45 752.10 767.07 757.40 761.97 761.44
  Q 754.35 767.48 742.50 776.33
  Q 741.77 776.87 742.42 776.24
  Q 753.62 765.37 761.80 756.27
  Q 775.17 741.39 787.25 719.85
  C 802.70 692.33 809.54 662.63 809.11 631.15
  C 808.12 558.17 807.88 492.04 807.28 421.40
  Q 807.14 405.46 806.16 389.65
  Q 805.12 372.76 800.43 356.71
  A 0.03 0.03 0.0 0 0 800.38 356.72
  L 800.90 367.98"
/>
<path stroke="#1f2c3e" vector-effect="non-scaling-stroke" d="
  M 800.90 367.98
  C 798.95 338.74 785.21 310.72 766.83 287.92
  Q 751.29 268.64 725.71 248.85
  Q 720.22 244.60 714.93 241.67
  C 704.63 235.96 697.52 231.13 687.92 227.83
  C 674.98 223.38 660.88 220.78 648.54 218.70
  C 636.66 216.69 623.88 216.75 613.98 215.94
  A 0.34 0.34 0.0 0 1 613.81 215.33
  Q 613.87 215.29 614.10 215.21
  A 0.17 0.17 0.0 0 0 614.10 214.89
  L 613.68 214.76
  A 0.17 0.17 0.0 0 1 613.71 214.43
  L 614.95 214.33"
/>
<path stroke="#60879a" vector-effect="non-scaling-stroke" d="
  M 614.95 214.33
  Q 637.42 213.68 655.25 216.28
  Q 690.26 221.40 721.89 240.65"
/>
<path stroke="#476f8c" vector-effect="non-scaling-stroke" d="
  M 721.89 240.65
  L 735.41 250.02
  A 0.14 0.14 0.0 0 0 735.62 249.94
  L 735.75 249.51
  A 0.28 0.27 26.8 0 0 735.64 249.20
  L 722.79 239.91"
/>
<path stroke="#60879a" vector-effect="non-scaling-stroke" d="
  M 722.79 239.91
  Q 722.77 239.86 722.76 239.80"
/>
<path stroke="#8fd3f1" vector-effect="non-scaling-stroke" d="
  M 722.79 239.91
  Q 722.80 240.58 721.89 240.65"
/>
<path stroke="#6790a3" vector-effect="non-scaling-stroke" d="
  M 614.95 214.33
  L 422.81 214.16"
/>
<path stroke="#8fd3f1" vector-effect="non-scaling-stroke" d="
  M 382.81 215.85
  Q 381.75 215.56 382.28 214.40"
/>
<path stroke="#5a7c8e" vector-effect="non-scaling-stroke" d="
  M 632.26 212.71
  L 415.29 212.52"
/>
<path stroke="#121829" vector-effect="non-scaling-stroke" d="
  M 647.23 509.27
  L 647.16 545.21"
/>
<path stroke="#1a2536" vector-effect="non-scaling-stroke" d="
  M 800.90 367.98
  L 801.71 405.24"
/>
<path stroke="#1f2c3e" vector-effect="non-scaling-stroke" d="
  M 790.85 683.52
  Q 782.85 668.11 769.44 654.42
  Q 756.55 641.27 752.12 635.75
  Q 735.93 615.59 726.49 605.69
  C 709.74 588.12 699.70 578.84 688.33 564.07
  Q 674.33 545.87 671.32 542.70
  Q 665.72 536.77 658.48 530.17
  C 651.99 524.25 649.82 517.72 647.23 509.27"
/>
<path stroke="#192132" vector-effect="non-scaling-stroke" d="
  M 647.23 509.27
  L 646.87 351.04"
/>
<path stroke="#1f2c3e" vector-effect="non-scaling-stroke" d="
  M 646.87 351.04
  L 646.64 338.62
  A 0.29 0.28 71.4 0 0 646.19 338.39
  Q 639.60 343.29 634.58 346.24
  C 624.78 352.00 621.56 344.06 618.23 335.87
  Q 616.98 332.80 612.24 327.07
  A 2.58 2.52 83.8 0 0 611.51 326.47
  Q 603.42 322.06 594.67 319.27
  A 2.14 2.08 48.3 0 0 593.70 319.20
  Q 587.40 320.25 580.61 323.46
  A 3.54 3.06 -73.1 0 0 579.93 323.89
  Q 567.66 333.94 561.66 339.64
  C 550.87 349.88 546.99 361.54 545.83 375.72
  Q 544.96 386.34 544.38 391.39
  C 543.33 400.60 540.04 402.49 532.71 396.33
  C 517.22 383.32 502.23 366.46 490.10 348.19
  C 483.62 338.43 479.64 332.41 472.94 325.56
  Q 461.49 313.87 456.34 306.97
  C 443.50 289.79 437.84 281.49 426.17 269.35
  Q 413.22 255.87 396.27 239.76
  C 392.88 236.54 384.11 228.36 387.59 223.30
  Q 389.61 220.36 393.94 217.96"
/>
<path stroke="#416480" vector-effect="non-scaling-stroke" d="
  M 573.63 481.53
  Q 573.64 487.90 573.64 494.25
  Q 573.63 576.27 573.88 671.50
  C 573.89 676.93 574.51 682.02 577.47 685.80
  C 585.03 695.42 597.72 697.28 607.80 690.77
  Q 617.42 684.55 616.75 670.72"
/>
<path stroke="#121829" vector-effect="non-scaling-stroke" d="
  M 646.87 351.04
  Q 646.83 350.85 646.67 350.75"
/>
<path stroke="#60879a" vector-effect="non-scaling-stroke" d="
  M 616.92 347.04
  C 618.08 335.65 612.81 326.93 602.32 323.20
  C 591.01 319.19 580.13 324.60 575.09 334.86"
/>
<path stroke="#121829" vector-effect="non-scaling-stroke" d="
  M 484.87 424.71
  L 484.99 359.71"
/>
<path stroke="#8fd3f1" vector-effect="non-scaling-stroke" d="
  M 616.81 522.98
  C 614.57 509.01 613.24 493.31 604.76 481.84
  Q 592.41 465.13 576.56 453.97
  A 0.32 0.32 0.0 0 0 576.05 454.22
  Q 575.75 460.49 575.67 475.89
  Q 575.65 480.09 574.16 484.81
  A 0.18 0.17 15.4 0 1 573.96 484.92
  A 0.17 0.17 0.0 0 1 573.82 484.73
  Q 574.06 483.11 573.63 481.53"
/>
<path stroke="#5a7c8e" vector-effect="non-scaling-stroke" d="
  M 573.63 481.53
  L 573.38 348.54"
/>
<path stroke="#0d1221" vector-effect="non-scaling-stroke" d="
  M 761.55 765.02
  C 756.01 767.04 750.30 772.62 746.53 775.01
  C 734.23 782.79 722.23 790.84 708.75 795.74
  C 693.41 801.33 680.23 805.57 664.77 807.76
  A 0.52 0.52 0.0 0 0 664.80 808.79
  L 669.72 809.26"
/>
<path stroke="#1a2536" vector-effect="non-scaling-stroke" d="
  M 669.70 809.30
  Q 661.53 810.56 653.25 810.37
  Q 636.48 809.98 619.71 810.00"
/>
<path stroke="#163154" vector-effect="non-scaling-stroke" d="
  M 619.71 810.00
  L 535.46 809.81"
/>
<path stroke="#234065" vector-effect="non-scaling-stroke" d="
  M 616.00 811.66
  Q 620.96 811.41 625.86 810.63
  L 625.86 810.62
  Q 622.78 810.42 619.71 810.00"
/>
<path stroke="#163154" vector-effect="non-scaling-stroke" d="
  M 388.06 809.81
  Q 380.53 810.15 373.64 810.36
  Q 371.95 810.41 370.35 810.93
  Q 369.40 811.24 369.41 812.12"
/>
<path stroke="#1d3c61" vector-effect="non-scaling-stroke" d="
  M 428.37 321.56
  Q 412.35 324.95 410.39 340.66
  Q 409.98 343.91 410.25 353.71"
/>
<path stroke="#0d1221" vector-effect="non-scaling-stroke" d="
  M 410.25 353.71
  L 409.69 341.41
  A 0.16 0.16 0.0 0 0 409.40 341.33
  Q 396.70 360.35 394.28 382.45
  Q 391.69 406.04 391.64 433.59
  C 391.53 485.56 389.64 568.78 390.71 632.02
  C 391.02 650.33 390.96 669.12 396.78 685.30
  C 401.44 698.26 412.44 707.90 426.50 707.03
  C 442.31 706.05 453.19 694.09 456.26 678.96
  Q 458.22 669.32 458.73 659.16
  Q 459.87 636.32 459.25 611.18
  C 458.24 570.37 457.62 544.49 457.76 506.95
  C 457.88 471.82 457.98 431.65 456.64 393.17
  C 456.38 385.70 455.56 378.15 454.64 370.46
  A 0.01 0.01 0.0 0 0 454.62 370.45
  C 454.56 376.11 454.45 386.23 454.45 400.94
  Q 454.45 403.50 454.16 406.04"
/>
<path stroke="#1d3c61" vector-effect="non-scaling-stroke" d="
  M 454.16 406.04
  Q 454.25 374.14 454.19 342.25
  Q 454.18 338.67 451.96 334.05"
/>
<path stroke="#131d2d" vector-effect="non-scaling-stroke" d="
  M 451.96 334.05
  Q 450.04 328.46 444.99 325.24
  Q 437.11 320.21 428.37 321.56"
/>
<path stroke="#234369" vector-effect="non-scaling-stroke" d="
  M 451.96 334.05
  Q 444.14 320.55 428.37 321.56"
/>
<path stroke="#1d385c" vector-effect="non-scaling-stroke" d="
  M 454.16 406.04
  L 454.09 515.69"
/>
<path stroke="#26578f" vector-effect="non-scaling-stroke" d="
  M 454.09 515.69
  Q 446.70 509.96 441.88 505.24
  Q 430.23 493.83 410.36 473.29"
/>
<path stroke="#1d385c" vector-effect="non-scaling-stroke" d="
  M 410.36 473.29
  L 410.25 353.71"
/>
<path stroke="#162c4f" vector-effect="non-scaling-stroke" d="
  M 410.36 473.29
  Q 410.40 571.88 410.44 670.24
  Q 410.44 677.04 411.18 679.78
  Q 412.49 684.57 415.88 687.98
  Q 424.57 696.68 437.74 693.53
  Q 439.49 693.11 440.35 693.14
  A 1.74 1.72 31.9 0 0 441.18 692.95
  Q 450.48 688.23 453.24 679.38
  Q 454.04 676.82 454.06 661.51
  Q 454.18 588.63 454.09 515.69"
/>
</g>
<path fill="#0c0d1c" d="
  M 799.88 0.00
  Q 804.58 0.51 807.18 0.52
  Q 857.92 0.64 983.24 0.60
  Q 1002.77 0.59 1010.46 0.85
  C 1016.39 1.05 1022.21 1.16 1022.34 9.04
  Q 1022.52 19.61 1022.66 32.02
  Q 1022.70 35.54 1022.93 158.97
  C 1022.98 184.25 1022.94 210.71 1023.08 243.60
  C 1023.14 260.26 1022.74 275.79 1022.92 291.23
  Q 1023.10 306.66 1022.86 326.98
  C 1022.37 369.08 1023.13 425.15 1023.07 470.01
  Q 1022.91 586.80 1022.91 587.94
  Q 1022.81 657.96 1023.17 893.02
  Q 1023.21 918.10 1022.82 955.35
  C 1022.60 976.17 1023.03 998.61 1022.37 1022.09
  A 0.60 0.60 0.0 0 1 1021.77 1022.67
  Q 918.85 1022.54 751.13 1022.67
  C 678.95 1022.73 607.16 1022.55 520.43 1022.65
  C 509.62 1022.67 501.14 1022.26 491.46 1022.52
  Q 486.42 1022.65 469.72 1022.64
  Q 275.94 1022.56 93.40 1022.61
  Q 51.09 1022.62 8.50 1022.61
  Q 2.86 1022.61 0.00 1018.62
  L 0.00 0.00
  L 799.88 0.00
  Z
  M 394.41 199.75
  C 368.95 201.32 344.17 207.48 321.45 218.96
  Q 305.53 226.99 289.85 239.11
  Q 282.07 245.13 269.97 257.31
  Q 264.47 262.85 259.61 269.23
  Q 250.36 281.39 250.07 281.83
  Q 235.53 303.31 228.98 321.65
  Q 221.18 343.47 218.47 359.25
  Q 215.72 375.23 216.07 400.00
  Q 216.07 400.09 216.08 400.19
  A 0.01 0.00 -43.6 0 0 216.09 400.19
  C 218.70 375.93 223.60 352.42 235.77 330.80
  Q 245.33 313.82 255.73 301.49
  C 262.53 293.43 270.75 285.92 278.68 279.70
  A 0.05 0.05 0.0 0 1 278.75 279.78
  Q 271.71 287.57 264.48 296.99
  Q 242.64 325.43 237.76 360.62
  C 236.49 369.72 236.09 380.96 236.10 390.26
  C 236.23 473.29 236.01 550.90 236.45 627.93
  Q 236.55 645.08 236.80 649.89
  Q 238.35 679.87 253.16 705.88
  C 263.28 723.65 274.58 738.12 289.10 751.39
  C 304.95 765.88 324.60 776.49 344.87 783.11
  Q 354.98 786.42 368.79 788.28
  A 0.39 0.39 0.0 0 0 369.21 788.01
  L 369.29 787.72
  A 0.50 0.50 0.0 0 0 368.88 787.08
  Q 344.75 783.97 320.97 771.87
  Q 318.28 770.50 317.11 769.61
  A 0.28 0.28 0.0 0 1 317.40 769.13
  C 322.09 771.29 325.52 773.15 330.26 774.77
  Q 342.92 779.10 345.21 779.77
  Q 355.10 782.65 369.35 784.79
  Q 372.79 785.31 376.63 785.48
  C 382.57 785.74 388.30 786.36 394.84 786.40
  Q 443.94 786.71 513.97 786.49
  C 552.24 786.38 592.21 786.65 636.07 786.59
  Q 672.86 786.54 705.21 770.45
  Q 724.96 760.63 741.96 746.50
  Q 769.40 724.56 786.03 693.52
  Q 787.22 691.31 790.85 683.52
  Q 795.53 672.92 798.55 661.97
  Q 801.29 652.04 801.38 642.24
  C 801.79 599.45 801.28 529.12 801.51 457.59
  C 801.56 441.02 801.41 422.70 801.71 405.24
  Q 801.87 398.11 802.05 390.98
  Q 802.11 388.61 802.61 387.22
  A 0.34 0.34 0.0 0 1 803.27 387.30
  Q 804.39 398.73 804.55 413.11
  Q 805.58 506.08 805.69 613.76
  Q 805.70 628.27 804.95 641.72
  C 802.84 679.70 786.15 716.92 761.40 745.25
  C 742.29 767.13 720.17 784.76 693.01 795.51
  C 675.65 802.38 655.16 805.57 635.86 806.47
  Q 617.98 807.29 596.73 808.57
  Q 582.19 809.44 570.50 809.44
  C 556.05 809.45 545.81 808.89 535.46 809.81
  L 388.06 809.81
  C 361.49 806.39 335.29 801.00 311.55 788.50
  C 265.20 764.09 237.34 720.79 221.98 671.72
  Q 219.38 663.41 218.39 655.76
  Q 217.01 644.98 216.98 639.42
  Q 216.74 588.76 217.05 534.75
  Q 217.09 528.08 216.87 518.03
  A 0.15 0.14 -82.1 0 0 216.77 517.89
  L 216.52 517.81
  A 0.29 0.29 0.0 0 0 216.14 518.07
  Q 215.68 524.99 215.81 535.02
  Q 215.98 547.82 215.74 627.36
  Q 215.68 645.12 216.90 654.22
  C 221.56 689.02 236.80 722.29 259.15 748.84
  C 270.74 762.60 282.46 774.24 297.27 784.25
  Q 322.65 801.40 353.77 809.50
  Q 358.81 810.82 369.41 812.12
  Q 373.35 811.62 377.00 811.64
  C 456.66 812.16 536.34 811.74 616.00 811.66
  Q 638.31 811.74 660.62 811.19
  Q 662.42 811.15 665.23 810.79
  Q 667.53 810.49 669.86 810.39
  Q 695.52 806.02 719.19 795.18
  C 724.41 792.79 728.64 789.97 732.90 787.68
  Q 737.25 785.35 742.85 781.45
  Q 762.15 768.04 777.18 751.44
  C 779.33 749.05 780.52 747.28 782.70 744.98
  Q 783.94 743.68 786.75 740.05
  Q 792.41 732.77 799.60 721.11
  Q 802.56 716.30 806.05 708.11
  Q 818.08 679.83 822.02 649.48
  Q 823.49 638.15 823.50 614.77
  Q 823.57 442.22 823.39 385.50
  Q 823.34 372.53 822.63 365.90
  Q 821.01 350.89 816.15 333.35
  Q 812.03 318.43 803.58 303.19
  C 799.49 294.06 793.90 286.44 788.22 278.27
  Q 785.51 274.37 783.63 272.10
  Q 769.45 254.93 758.45 245.17
  Q 736.95 226.08 710.05 214.00
  Q 699.79 209.40 685.71 206.10
  Q 672.21 202.02 662.98 201.19
  Q 654.05 200.38 651.11 199.81
  L 394.41 199.75
  Z"
/>
<path fill="#0d1625" d="
  M 1024.00 0.00
  L 1024.00 1024.00
  L 0.00 1024.00
  L 0.00 1018.62
  Q 2.86 1022.61 8.50 1022.61
  Q 51.09 1022.62 93.40 1022.61
  Q 275.94 1022.56 469.72 1022.64
  Q 486.42 1022.65 491.46 1022.52
  C 501.14 1022.26 509.62 1022.67 520.43 1022.65
  C 607.16 1022.55 678.95 1022.73 751.13 1022.67
  Q 918.85 1022.54 1021.77 1022.67
  A 0.60 0.60 0.0 0 0 1022.37 1022.09
  C 1023.03 998.61 1022.60 976.17 1022.82 955.35
  Q 1023.21 918.10 1023.17 893.02
  Q 1022.81 657.96 1022.91 587.94
  Q 1022.91 586.80 1023.07 470.01
  C 1023.13 425.15 1022.37 369.08 1022.86 326.98
  Q 1023.10 306.66 1022.92 291.23
  C 1022.74 275.79 1023.14 260.26 1023.08 243.60
  C 1022.94 210.71 1022.98 184.25 1022.93 158.97
  Q 1022.70 35.54 1022.66 32.02
  Q 1022.52 19.61 1022.34 9.04
  C 1022.21 1.16 1016.39 1.05 1010.46 0.85
  Q 1002.77 0.59 983.24 0.60
  Q 857.92 0.64 807.18 0.52
  Q 804.58 0.51 799.88 0.00
  L 1024.00 0.00
  Z"
/>
<path fill="#263447" d="
  M 651.11 199.81
  Q 651.64 200.03 651.63 200.16
  A 0.53 0.53 0.0 0 1 651.10 200.68
  L 575.98 200.91
  L 394.55 200.62
  A 0.65 0.64 -9.5 0 1 393.94 200.19
  Q 393.90 200.10 394.41 199.75
  L 651.11 199.81
  Z"
/>
<path fill="#0d1625" d="
  M 394.41 199.75
  Q 393.90 200.10 393.94 200.19
  A 0.65 0.64 -9.5 0 0 394.55 200.62
  L 575.98 200.91
  Q 556.58 201.96 537.14 202.00
  Q 533.04 202.00 528.70 202.70
  A 0.21 0.21 0.0 0 0 528.62 203.09
  Q 529.00 203.31 533.52 203.78
  C 540.61 204.52 551.53 205.19 558.99 205.43
  Q 605.62 206.94 634.63 209.23
  Q 645.60 210.10 657.80 211.94
  C 680.61 215.38 705.39 224.20 722.76 239.80
  Q 681.82 213.19 632.26 212.71
  Q 634.18 212.74 636.03 212.13
  A 0.32 0.32 0.0 0 0 636.03 211.53
  C 633.16 210.61 630.66 210.73 627.67 210.74
  Q 516.71 211.20 397.35 210.51
  A 0.63 0.63 0.0 0 0 396.75 210.95
  L 396.65 211.28
  A 0.73 0.72 -81.4 0 0 397.33 212.21
  L 415.29 212.52
  Q 407.65 212.86 400.00 212.84
  Q 394.13 212.82 382.28 214.40
  Q 363.34 217.04 345.80 224.60
  A 0.22 0.21 67.7 0 0 345.69 224.88
  L 345.69 224.89
  A 0.22 0.21 68.4 0 0 345.96 225.01
  Q 363.84 218.27 382.81 215.85
  Q 402.65 213.90 422.81 214.16
  Q 418.48 216.41 413.10 216.61
  Q 405.03 216.91 393.94 217.96
  Q 386.37 218.51 380.28 219.79
  Q 357.73 224.54 336.23 235.26
  Q 332.52 237.11 329.15 239.19
  C 322.66 243.20 317.81 245.79 312.19 250.16
  Q 300.82 258.99 291.49 267.84
  A 0.73 0.71 -36.3 0 0 291.35 268.69
  Q 295.86 277.31 299.77 282.38
  Q 315.18 302.36 327.91 322.06
  C 330.88 326.67 334.89 331.21 338.62 335.32
  C 343.50 340.71 346.88 346.66 349.89 351.73
  C 353.72 358.19 358.09 363.41 364.15 367.20
  C 372.75 372.57 378.75 370.82 383.96 362.22
  Q 389.12 353.69 392.09 349.00
  C 397.56 340.33 407.18 331.11 416.30 323.51
  A 2.91 2.88 11.6 0 1 416.96 323.08
  Q 423.41 319.90 430.59 318.87
  A 3.95 3.86 48.6 0 1 432.31 319.00
  L 443.60 322.41
  A 4.29 4.26 71.7 0 1 444.94 323.09
  Q 448.45 325.68 451.43 329.84
  Q 454.41 334.00 457.72 337.88
  C 465.41 346.90 474.18 345.13 483.87 341.64
  A 0.39 0.38 78.6 0 1 484.39 341.99
  L 484.99 359.71
  L 484.41 353.75
  A 0.22 0.22 0.0 0 0 484.03 353.62
  C 474.17 364.11 471.81 378.73 470.88 392.81
  C 468.66 426.46 468.71 455.97 469.18 495.69
  C 469.31 506.02 469.27 522.03 469.03 534.72
  Q 468.20 578.71 468.24 621.70
  C 468.25 636.40 467.92 651.94 473.29 664.60
  C 474.24 666.84 477.72 672.15 480.34 668.93
  Q 483.25 665.36 484.54 659.41
  A 4.46 4.42 51.1 0 0 484.63 658.52
  L 484.87 424.71
  C 485.29 458.10 485.29 484.53 486.12 524.89
  Q 486.22 529.84 487.07 534.34
  C 487.77 538.08 488.97 540.12 492.53 541.98
  C 498.70 545.19 503.70 549.08 509.27 554.71
  Q 523.91 569.49 527.82 573.08
  C 532.92 577.76 539.77 583.72 545.61 576.06
  A 0.82 0.78 -27.2 0 0 545.78 575.57
  C 546.04 551.97 545.48 502.03 546.12 462.72
  C 546.68 428.77 545.84 398.51 554.47 368.12
  Q 559.79 349.38 575.09 334.86
  Q 572.90 341.18 573.38 348.54
  L 572.67 343.39
  A 0.16 0.16 0.0 0 0 572.37 343.34
  Q 561.65 363.22 559.48 387.22
  Q 558.02 403.33 557.76 419.66
  Q 556.77 481.85 556.62 495.53
  C 556.36 519.83 557.29 548.86 557.05 571.66
  Q 556.78 598.44 555.85 641.92
  Q 555.49 658.93 558.30 674.08
  C 560.84 687.83 568.67 702.83 582.86 705.56
  C 596.60 708.21 606.75 699.29 614.07 688.70
  Q 615.57 686.53 615.99 683.60
  Q 616.92 677.19 616.75 670.72
  L 616.81 522.98
  L 616.92 347.04
  L 617.45 343.68
  A 0.13 0.13 0.0 0 1 617.70 343.66
  C 619.84 349.89 619.53 357.04 619.90 364.11
  A 1.05 1.04 11.5 0 0 620.49 365.00
  Q 625.13 367.20 628.66 363.82
  Q 631.70 360.90 636.70 354.14
  Q 639.56 350.27 646.05 343.15
  A 0.21 0.20 -24.6 0 1 646.41 343.28
  L 646.67 350.75
  Q 636.66 369.63 634.95 391.29
  Q 633.14 414.15 632.93 443.48
  Q 632.43 515.67 631.82 572.96
  Q 631.55 598.97 631.82 624.56
  C 631.95 637.59 632.86 652.78 638.17 664.97
  Q 640.27 669.79 646.21 675.18
  A 0.26 0.26 0.0 0 0 646.65 674.99
  L 647.16 545.21
  L 647.92 641.34
  A 3.04 2.98 -55.0 0 0 648.08 642.31
  C 651.21 651.46 654.93 657.21 662.43 664.98
  Q 670.94 673.78 672.12 675.09
  C 680.45 684.39 688.15 694.62 695.14 703.09
  Q 699.75 708.69 703.66 712.19
  C 716.49 723.71 728.83 735.56 741.96 746.50
  Q 724.96 760.63 705.21 770.45
  Q 672.86 786.54 636.07 786.59
  C 592.21 786.65 552.24 786.38 513.97 786.49
  Q 443.94 786.71 394.84 786.40
  C 388.30 786.36 382.57 785.74 376.63 785.48
  Q 372.79 785.31 369.35 784.79
  Q 355.10 782.65 345.21 779.77
  Q 342.92 779.10 330.26 774.77
  C 325.52 773.15 322.09 771.29 317.40 769.13
  A 0.28 0.28 0.0 0 0 317.11 769.61
  Q 318.28 770.50 320.97 771.87
  Q 344.75 783.97 368.88 787.08
  A 0.50 0.50 0.0 0 1 369.29 787.72
  L 369.21 788.01
  A 0.39 0.39 0.0 0 1 368.79 788.28
  Q 354.98 786.42 344.87 783.11
  C 324.60 776.49 304.95 765.88 289.10 751.39
  C 274.58 738.12 263.28 723.65 253.16 705.88
  Q 238.35 679.87 236.80 649.89
  Q 236.55 645.08 236.45 627.93
  C 236.01 550.90 236.23 473.29 236.10 390.26
  C 236.09 380.96 236.49 369.72 237.76 360.62
  Q 242.64 325.43 264.48 296.99
  Q 271.71 287.57 278.75 279.78
  A 0.05 0.05 0.0 0 0 278.68 279.70
  C 270.75 285.92 262.53 293.43 255.73 301.49
  Q 245.33 313.82 235.77 330.80
  C 223.60 352.42 218.70 375.93 216.09 400.19
  A 0.01 0.00 -43.6 0 1 216.08 400.19
  Q 216.07 400.09 216.07 400.00
  Q 215.72 375.23 218.47 359.25
  Q 221.18 343.47 228.98 321.65
  Q 235.53 303.31 250.07 281.83
  Q 250.36 281.39 259.61 269.23
  Q 264.47 262.85 269.97 257.31
  Q 282.07 245.13 289.85 239.11
  Q 305.53 226.99 321.45 218.96
  C 344.17 207.48 368.95 201.32 394.41 199.75
  Z
  M 428.37 321.56
  Q 412.35 324.95 410.39 340.66
  Q 409.98 343.91 410.25 353.71
  L 409.69 341.41
  A 0.16 0.16 0.0 0 0 409.40 341.33
  Q 396.70 360.35 394.28 382.45
  Q 391.69 406.04 391.64 433.59
  C 391.53 485.56 389.64 568.78 390.71 632.02
  C 391.02 650.33 390.96 669.12 396.78 685.30
  C 401.44 698.26 412.44 707.90 426.50 707.03
  C 442.31 706.05 453.19 694.09 456.26 678.96
  Q 458.22 669.32 458.73 659.16
  Q 459.87 636.32 459.25 611.18
  C 458.24 570.37 457.62 544.49 457.76 506.95
  C 457.88 471.82 457.98 431.65 456.64 393.17
  C 456.38 385.70 455.56 378.15 454.64 370.46
  A 0.01 0.01 0.0 0 0 454.62 370.45
  C 454.56 376.11 454.45 386.23 454.45 400.94
  Q 454.45 403.50 454.16 406.04
  Q 454.25 374.14 454.19 342.25
  Q 454.18 338.67 451.96 334.05
  Q 450.04 328.46 444.99 325.24
  Q 437.11 320.21 428.37 321.56
  Z"
/>
<path fill="#182335" d="
  M 685.71 206.10
  Q 693.92 211.15 702.99 214.40
  Q 710.76 217.18 713.83 218.73
  Q 724.51 224.13 729.52 227.67
  Q 742.69 236.99 745.08 238.77
  Q 748.13 241.04 755.66 247.97
  Q 764.31 255.94 766.00 257.48
  Q 773.95 264.70 778.34 270.39
  Q 788.90 284.07 801.53 302.27
  Q 802.29 303.38 803.58 303.19
  Q 812.03 318.43 816.15 333.35
  Q 821.01 350.89 822.63 365.90
  Q 823.34 372.53 823.39 385.50
  Q 823.57 442.22 823.50 614.77
  Q 823.49 638.15 822.02 649.48
  Q 818.08 679.83 806.05 708.11
  Q 802.56 716.30 799.60 721.11
  Q 792.41 732.77 786.75 740.05
  Q 783.94 743.68 782.70 744.98
  C 780.52 747.28 779.33 749.05 777.18 751.44
  Q 762.15 768.04 742.85 781.45
  Q 737.25 785.35 732.90 787.68
  C 728.64 789.97 724.41 792.79 719.19 795.18
  Q 695.52 806.02 669.86 810.39
  L 669.70 809.30
  Q 669.71 809.28 669.72 809.26
  Q 674.09 808.41 678.48 807.61
  Q 683.26 806.73 687.14 805.60
  Q 705.86 800.13 719.59 793.57
  Q 741.20 783.25 761.55 765.02
  L 777.37 749.02
  A 0.53 0.53 0.0 0 0 776.68 748.22
  C 771.45 752.10 767.07 757.40 761.97 761.44
  Q 754.35 767.48 742.50 776.33
  Q 741.77 776.87 742.42 776.24
  Q 753.62 765.37 761.80 756.27
  Q 775.17 741.39 787.25 719.85
  C 802.70 692.33 809.54 662.63 809.11 631.15
  C 808.12 558.17 807.88 492.04 807.28 421.40
  Q 807.14 405.46 806.16 389.65
  Q 805.12 372.76 800.43 356.71
  A 0.03 0.03 0.0 0 0 800.38 356.72
  L 800.90 367.98
  C 798.95 338.74 785.21 310.72 766.83 287.92
  Q 751.29 268.64 725.71 248.85
  Q 720.22 244.60 714.93 241.67
  C 704.63 235.96 697.52 231.13 687.92 227.83
  C 674.98 223.38 660.88 220.78 648.54 218.70
  C 636.66 216.69 623.88 216.75 613.98 215.94
  A 0.34 0.34 0.0 0 1 613.81 215.33
  Q 613.87 215.29 614.10 215.21
  A 0.17 0.17 0.0 0 0 614.10 214.89
  L 613.68 214.76
  A 0.17 0.17 0.0 0 1 613.71 214.43
  L 614.95 214.33
  Q 637.42 213.68 655.25 216.28
  Q 690.26 221.40 721.89 240.65
  L 735.41 250.02
  A 0.14 0.14 0.0 0 0 735.62 249.94
  L 735.75 249.51
  A 0.28 0.27 26.8 0 0 735.64 249.20
  L 722.79 239.91
  Q 722.77 239.86 722.76 239.80
  C 705.39 224.20 680.61 215.38 657.80 211.94
  Q 645.60 210.10 634.63 209.23
  Q 605.62 206.94 558.99 205.43
  C 551.53 205.19 540.61 204.52 533.52 203.78
  Q 529.00 203.31 528.62 203.09
  A 0.21 0.21 0.0 0 1 528.70 202.70
  Q 533.04 202.00 537.14 202.00
  Q 556.58 201.96 575.98 200.91
  L 651.10 200.68
  A 0.53 0.53 0.0 0 0 651.63 200.16
  Q 651.64 200.03 651.11 199.81
  Q 654.05 200.38 662.98 201.19
  Q 672.21 202.02 685.71 206.10
  Z"
/>
<path fill="#263447" d="
  M 685.71 206.10
  Q 699.79 209.40 710.05 214.00
  Q 736.95 226.08 758.45 245.17
  Q 769.45 254.93 783.63 272.10
  Q 785.51 274.37 788.22 278.27
  C 793.90 286.44 799.49 294.06 803.58 303.19
  Q 802.29 303.38 801.53 302.27
  Q 788.90 284.07 778.34 270.39
  Q 773.95 264.70 766.00 257.48
  Q 764.31 255.94 755.66 247.97
  Q 748.13 241.04 745.08 238.77
  Q 742.69 236.99 729.52 227.67
  Q 724.51 224.13 713.83 218.73
  Q 710.76 217.18 702.99 214.40
  Q 693.92 211.15 685.71 206.10
  Z"
/>
<path fill="#0c0d1c" d="
  M 632.26 212.71
  L 415.29 212.52
  L 397.33 212.21
  A 0.73 0.72 -81.4 0 1 396.65 211.28
  L 396.75 210.95
  A 0.63 0.63 0.0 0 1 397.35 210.51
  Q 516.71 211.20 627.67 210.74
  C 630.66 210.73 633.16 210.61 636.03 211.53
  A 0.32 0.32 0.0 0 1 636.03 212.13
  Q 634.18 212.74 632.26 212.71
  Z"
/>
<path fill="#a8ebff" d="
  M 632.26 212.71
  Q 681.82 213.19 722.76 239.80
  Q 722.77 239.86 722.79 239.91
  Q 722.80 240.58 721.89 240.65
  Q 690.26 221.40 655.25 216.28
  Q 637.42 213.68 614.95 214.33
  L 422.81 214.16
  Q 402.65 213.90 382.81 215.85
  Q 381.75 215.56 382.28 214.40
  Q 394.13 212.82 400.00 212.84
  Q 407.65 212.86 415.29 212.52
  L 632.26 212.71
  Z"
/>
<path fill="#263447" d="
  M 614.95 214.33
  L 613.71 214.43
  A 0.17 0.17 0.0 0 0 613.68 214.76
  L 614.10 214.89
  A 0.17 0.17 0.0 0 1 614.10 215.21
  Q 613.87 215.29 613.81 215.33
  A 0.34 0.34 0.0 0 0 613.98 215.94
  C 623.88 216.75 636.66 216.69 648.54 218.70
  C 660.88 220.78 674.98 223.38 687.92 227.83
  C 697.52 231.13 704.63 235.96 714.93 241.67
  Q 720.22 244.60 725.71 248.85
  Q 751.29 268.64 766.83 287.92
  C 785.21 310.72 798.95 338.74 800.90 367.98
  L 801.71 405.24
  C 801.41 422.70 801.56 441.02 801.51 457.59
  C 801.28 529.12 801.79 599.45 801.38 642.24
  Q 801.29 652.04 798.55 661.97
  Q 795.53 672.92 790.85 683.52
  Q 782.85 668.11 769.44 654.42
  Q 756.55 641.27 752.12 635.75
  Q 735.93 615.59 726.49 605.69
  C 709.74 588.12 699.70 578.84 688.33 564.07
  Q 674.33 545.87 671.32 542.70
  Q 665.72 536.77 658.48 530.17
  C 651.99 524.25 649.82 517.72 647.23 509.27
  L 646.87 351.04
  L 646.64 338.62
  A 0.29 0.28 71.4 0 0 646.19 338.39
  Q 639.60 343.29 634.58 346.24
  C 624.78 352.00 621.56 344.06 618.23 335.87
  Q 616.98 332.80 612.24 327.07
  A 2.58 2.52 83.8 0 0 611.51 326.47
  Q 603.42 322.06 594.67 319.27
  A 2.14 2.08 48.3 0 0 593.70 319.20
  Q 587.40 320.25 580.61 323.46
  A 3.54 3.06 -73.1 0 0 579.93 323.89
  Q 567.66 333.94 561.66 339.64
  C 550.87 349.88 546.99 361.54 545.83 375.72
  Q 544.96 386.34 544.38 391.39
  C 543.33 400.60 540.04 402.49 532.71 396.33
  C 517.22 383.32 502.23 366.46 490.10 348.19
  C 483.62 338.43 479.64 332.41 472.94 325.56
  Q 461.49 313.87 456.34 306.97
  C 443.50 289.79 437.84 281.49 426.17 269.35
  Q 413.22 255.87 396.27 239.76
  C 392.88 236.54 384.11 228.36 387.59 223.30
  Q 389.61 220.36 393.94 217.96
  Q 405.03 216.91 413.10 216.61
  Q 418.48 216.41 422.81 214.16
  L 614.95 214.33
  Z"
/>
<path fill="#75bae3" d="
  M 382.28 214.40
  Q 381.75 215.56 382.81 215.85
  Q 363.84 218.27 345.96 225.01
  A 0.22 0.21 68.4 0 1 345.69 224.89
  L 345.69 224.88
  A 0.22 0.21 67.7 0 1 345.80 224.60
  Q 363.34 217.04 382.28 214.40
  Z"
/>
<path fill="#182335" d="
  M 393.94 217.96
  Q 389.61 220.36 387.59 223.30
  C 384.11 228.36 392.88 236.54 396.27 239.76
  Q 413.22 255.87 426.17 269.35
  C 437.84 281.49 443.50 289.79 456.34 306.97
  Q 461.49 313.87 472.94 325.56
  C 479.64 332.41 483.62 338.43 490.10 348.19
  C 502.23 366.46 517.22 383.32 532.71 396.33
  C 540.04 402.49 543.33 400.60 544.38 391.39
  Q 544.96 386.34 545.83 375.72
  C 546.99 361.54 550.87 349.88 561.66 339.64
  Q 567.66 333.94 579.93 323.89
  A 3.54 3.06 -73.1 0 1 580.61 323.46
  Q 587.40 320.25 593.70 319.20
  A 2.14 2.08 48.3 0 1 594.67 319.27
  Q 603.42 322.06 611.51 326.47
  A 2.58 2.52 83.8 0 1 612.24 327.07
  Q 616.98 332.80 618.23 335.87
  C 621.56 344.06 624.78 352.00 634.58 346.24
  Q 639.60 343.29 646.19 338.39
  A 0.29 0.28 71.4 0 1 646.64 338.62
  L 646.87 351.04
  Q 646.83 350.85 646.67 350.75
  L 646.41 343.28
  A 0.21 0.20 -24.6 0 0 646.05 343.15
  Q 639.56 350.27 636.70 354.14
  Q 631.70 360.90 628.66 363.82
  Q 625.13 367.20 620.49 365.00
  A 1.05 1.04 11.5 0 1 619.90 364.11
  C 619.53 357.04 619.84 349.89 617.70 343.66
  A 0.13 0.13 0.0 0 0 617.45 343.68
  L 616.92 347.04
  C 618.08 335.65 612.81 326.93 602.32 323.20
  C 591.01 319.19 580.13 324.60 575.09 334.86
  Q 559.79 349.38 554.47 368.12
  C 545.84 398.51 546.68 428.77 546.12 462.72
  C 545.48 502.03 546.04 551.97 545.78 575.57
  A 0.82 0.78 -27.2 0 1 545.61 576.06
  C 539.77 583.72 532.92 577.76 527.82 573.08
  Q 523.91 569.49 509.27 554.71
  C 503.70 549.08 498.70 545.19 492.53 541.98
  C 488.97 540.12 487.77 538.08 487.07 534.34
  Q 486.22 529.84 486.12 524.89
  C 485.29 484.53 485.29 458.10 484.87 424.71
  L 484.99 359.71
  L 484.39 341.99
  A 0.39 0.38 78.6 0 0 483.87 341.64
  C 474.18 345.13 465.41 346.90 457.72 337.88
  Q 454.41 334.00 451.43 329.84
  Q 448.45 325.68 444.94 323.09
  A 4.29 4.26 71.7 0 0 443.60 322.41
  L 432.31 319.00
  A 3.95 3.86 48.6 0 0 430.59 318.87
  Q 423.41 319.90 416.96 323.08
  A 2.91 2.88 11.6 0 0 416.30 323.51
  C 407.18 331.11 397.56 340.33 392.09 349.00
  Q 389.12 353.69 383.96 362.22
  C 378.75 370.82 372.75 372.57 364.15 367.20
  C 358.09 363.41 353.72 358.19 349.89 351.73
  C 346.88 346.66 343.50 340.71 338.62 335.32
  C 334.89 331.21 330.88 326.67 327.91 322.06
  Q 315.18 302.36 299.77 282.38
  Q 295.86 277.31 291.35 268.69
  A 0.73 0.71 -36.3 0 1 291.49 267.84
  Q 300.82 258.99 312.19 250.16
  C 317.81 245.79 322.66 243.20 329.15 239.19
  Q 332.52 237.11 336.23 235.26
  Q 357.73 224.54 380.28 219.79
  Q 386.37 218.51 393.94 217.96
  Z"
/>
<path fill="#75bae3" d="
  M 721.89 240.65
  Q 722.80 240.58 722.79 239.91
  L 735.64 249.20
  A 0.28 0.27 26.8 0 1 735.75 249.51
  L 735.62 249.94
  A 0.14 0.14 0.0 0 1 735.41 250.02
  L 721.89 240.65
  Z"
/>
<path fill="#182335" d="
  M 451.96 334.05
  Q 444.14 320.55 428.37 321.56
  Q 437.11 320.21 444.99 325.24
  Q 450.04 328.46 451.96 334.05
  Z"
/>
<path fill="#2d629c" d="
  M 451.96 334.05
  Q 454.18 338.67 454.19 342.25
  Q 454.25 374.14 454.16 406.04
  L 454.09 515.69
  Q 446.70 509.96 441.88 505.24
  Q 430.23 493.83 410.36 473.29
  L 410.25 353.71
  Q 409.98 343.91 410.39 340.66
  Q 412.35 324.95 428.37 321.56
  Q 444.14 320.55 451.96 334.05
  Z"
/>
<path fill="#a8ebff" d="
  M 616.92 347.04
  L 616.81 522.98
  C 614.57 509.01 613.24 493.31 604.76 481.84
  Q 592.41 465.13 576.56 453.97
  A 0.32 0.32 0.0 0 0 576.05 454.22
  Q 575.75 460.49 575.67 475.89
  Q 575.65 480.09 574.16 484.81
  A 0.18 0.17 15.4 0 1 573.96 484.92
  A 0.17 0.17 0.0 0 1 573.82 484.73
  Q 574.06 483.11 573.63 481.53
  L 573.38 348.54
  Q 572.90 341.18 575.09 334.86
  C 580.13 324.60 591.01 319.19 602.32 323.20
  C 612.81 326.93 618.08 335.65 616.92 347.04
  Z"
/>
<path fill="#0c0d1c" d="
  M 410.25 353.71
  L 410.36 473.29
  Q 410.40 571.88 410.44 670.24
  Q 410.44 677.04 411.18 679.78
  Q 412.49 684.57 415.88 687.98
  Q 424.57 696.68 437.74 693.53
  Q 439.49 693.11 440.35 693.14
  A 1.74 1.72 31.9 0 0 441.18 692.95
  Q 450.48 688.23 453.24 679.38
  Q 454.04 676.82 454.06 661.51
  Q 454.18 588.63 454.09 515.69
  L 454.16 406.04
  Q 454.45 403.50 454.45 400.94
  C 454.45 386.23 454.56 376.11 454.62 370.45
  A 0.01 0.01 0.0 0 1 454.64 370.46
  C 455.56 378.15 456.38 385.70 456.64 393.17
  C 457.98 431.65 457.88 471.82 457.76 506.95
  C 457.62 544.49 458.24 570.37 459.25 611.18
  Q 459.87 636.32 458.73 659.16
  Q 458.22 669.32 456.26 678.96
  C 453.19 694.09 442.31 706.05 426.50 707.03
  C 412.44 707.90 401.44 698.26 396.78 685.30
  C 390.96 669.12 391.02 650.33 390.71 632.02
  C 389.64 568.78 391.53 485.56 391.64 433.59
  Q 391.69 406.04 394.28 382.45
  Q 396.70 360.35 409.40 341.33
  A 0.16 0.16 0.0 0 1 409.69 341.41
  L 410.25 353.71
  Z"
/>
<path fill="#0c0d1c" d="
  M 573.38 348.54
  L 573.63 481.53
  Q 573.64 487.90 573.64 494.25
  Q 573.63 576.27 573.88 671.50
  C 573.89 676.93 574.51 682.02 577.47 685.80
  C 585.03 695.42 597.72 697.28 607.80 690.77
  Q 617.42 684.55 616.75 670.72
  Q 616.92 677.19 615.99 683.60
  Q 615.57 686.53 614.07 688.70
  C 606.75 699.29 596.60 708.21 582.86 705.56
  C 568.67 702.83 560.84 687.83 558.30 674.08
  Q 555.49 658.93 555.85 641.92
  Q 556.78 598.44 557.05 571.66
  C 557.29 548.86 556.36 519.83 556.62 495.53
  Q 556.77 481.85 557.76 419.66
  Q 558.02 403.33 559.48 387.22
  Q 561.65 363.22 572.37 343.34
  A 0.16 0.16 0.0 0 1 572.67 343.39
  L 573.38 348.54
  Z"
/>
<path fill="#0c0d1c" d="
  M 646.67 350.75
  Q 646.83 350.85 646.87 351.04
  L 647.23 509.27
  L 647.16 545.21
  L 646.65 674.99
  A 0.26 0.26 0.0 0 1 646.21 675.18
  Q 640.27 669.79 638.17 664.97
  C 632.86 652.78 631.95 637.59 631.82 624.56
  Q 631.55 598.97 631.82 572.96
  Q 632.43 515.67 632.93 443.48
  Q 633.14 414.15 634.95 391.29
  Q 636.66 369.63 646.67 350.75
  Z"
/>
<path fill="#0c0d1c" d="
  M 484.99 359.71
  L 484.87 424.71
  L 484.63 658.52
  A 4.46 4.42 51.1 0 1 484.54 659.41
  Q 483.25 665.36 480.34 668.93
  C 477.72 672.15 474.24 666.84 473.29 664.60
  C 467.92 651.94 468.25 636.40 468.24 621.70
  Q 468.20 578.71 469.03 534.72
  C 469.27 522.03 469.31 506.02 469.18 495.69
  C 468.71 455.97 468.66 426.46 470.88 392.81
  C 471.81 378.73 474.17 364.11 484.03 353.62
  A 0.22 0.22 0.0 0 1 484.41 353.75
  L 484.99 359.71
  Z"
/>
<path fill="#0d1625" d="
  M 761.55 765.02
  C 756.01 767.04 750.30 772.62 746.53 775.01
  C 734.23 782.79 722.23 790.84 708.75 795.74
  C 693.41 801.33 680.23 805.57 664.77 807.76
  A 0.52 0.52 0.0 0 0 664.80 808.79
  L 669.72 809.26
  Q 669.71 809.28 669.70 809.30
  Q 661.53 810.56 653.25 810.37
  Q 636.48 809.98 619.71 810.00
  L 535.46 809.81
  C 545.81 808.89 556.05 809.45 570.50 809.44
  Q 582.19 809.44 596.73 808.57
  Q 617.98 807.29 635.86 806.47
  C 655.16 805.57 675.65 802.38 693.01 795.51
  C 720.17 784.76 742.29 767.13 761.40 745.25
  C 786.15 716.92 802.84 679.70 804.95 641.72
  Q 805.70 628.27 805.69 613.76
  Q 805.58 506.08 804.55 413.11
  Q 804.39 398.73 803.27 387.30
  A 0.34 0.34 0.0 0 0 802.61 387.22
  Q 802.11 388.61 802.05 390.98
  Q 801.87 398.11 801.71 405.24
  L 800.90 367.98
  L 800.38 356.72
  A 0.03 0.03 0.0 0 1 800.43 356.71
  Q 805.12 372.76 806.16 389.65
  Q 807.14 405.46 807.28 421.40
  C 807.88 492.04 808.12 558.17 809.11 631.15
  C 809.54 662.63 802.70 692.33 787.25 719.85
  Q 775.17 741.39 761.80 756.27
  Q 753.62 765.37 742.42 776.24
  Q 741.77 776.87 742.50 776.33
  Q 754.35 767.48 761.97 761.44
  C 767.07 757.40 771.45 752.10 776.68 748.22
  A 0.53 0.53 0.0 0 1 777.37 749.02
  L 761.55 765.02
  Z"
/>
<path fill="#75bae3" d="
  M 616.81 522.98
  L 616.75 670.72
  Q 617.42 684.55 607.80 690.77
  C 597.72 697.28 585.03 695.42 577.47 685.80
  C 574.51 682.02 573.89 676.93 573.88 671.50
  Q 573.63 576.27 573.64 494.25
  Q 573.64 487.90 573.63 481.53
  Q 574.06 483.11 573.82 484.73
  A 0.17 0.17 0.0 0 0 573.96 484.92
  A 0.18 0.17 15.4 0 0 574.16 484.81
  Q 575.65 480.09 575.67 475.89
  Q 575.75 460.49 576.05 454.22
  A 0.32 0.32 0.0 0 1 576.56 453.97
  Q 592.41 465.13 604.76 481.84
  C 613.24 493.31 614.57 509.01 616.81 522.98
  Z"
/>
<path fill="#1f4b82" d="
  M 410.36 473.29
  Q 430.23 493.83 441.88 505.24
  Q 446.70 509.96 454.09 515.69
  Q 454.18 588.63 454.06 661.51
  Q 454.04 676.82 453.24 679.38
  Q 450.48 688.23 441.18 692.95
  A 1.74 1.72 31.9 0 1 440.35 693.14
  Q 439.49 693.11 437.74 693.53
  Q 424.57 696.68 415.88 687.98
  Q 412.49 684.57 411.18 679.78
  Q 410.44 677.04 410.44 670.24
  Q 410.40 571.88 410.36 473.29
  Z"
/>
<path fill="#182335" d="
  M 790.85 683.52
  Q 787.22 691.31 786.03 693.52
  Q 769.40 724.56 741.96 746.50
  C 728.83 735.56 716.49 723.71 703.66 712.19
  Q 699.75 708.69 695.14 703.09
  C 688.15 694.62 680.45 684.39 672.12 675.09
  Q 670.94 673.78 662.43 664.98
  C 654.93 657.21 651.21 651.46 648.08 642.31
  A 3.04 2.98 -55.0 0 1 647.92 641.34
  L 647.16 545.21
  L 647.23 509.27
  C 649.82 517.72 651.99 524.25 658.48 530.17
  Q 665.72 536.77 671.32 542.70
  Q 674.33 545.87 688.33 564.07
  C 699.70 578.84 709.74 588.12 726.49 605.69
  Q 735.93 615.59 752.12 635.75
  Q 756.55 641.27 769.44 654.42
  Q 782.85 668.11 790.85 683.52
  Z"
/>
<path fill="#0d1625" d="
  M 388.06 809.81
  Q 380.53 810.15 373.64 810.36
  Q 371.95 810.41 370.35 810.93
  Q 369.40 811.24 369.41 812.12
  Q 358.81 810.82 353.77 809.50
  Q 322.65 801.40 297.27 784.25
  C 282.46 774.24 270.74 762.60 259.15 748.84
  C 236.80 722.29 221.56 689.02 216.90 654.22
  Q 215.68 645.12 215.74 627.36
  Q 215.98 547.82 215.81 535.02
  Q 215.68 524.99 216.14 518.07
  A 0.29 0.29 0.0 0 1 216.52 517.81
  L 216.77 517.89
  A 0.15 0.14 -82.1 0 1 216.87 518.03
  Q 217.09 528.08 217.05 534.75
  Q 216.74 588.76 216.98 639.42
  Q 217.01 644.98 218.39 655.76
  Q 219.38 663.41 221.98 671.72
  C 237.34 720.79 265.20 764.09 311.55 788.50
  C 335.29 801.00 361.49 806.39 388.06 809.81
  Z"
/>
<path fill="#0c0d1c" d="
  M 761.55 765.02
  Q 741.20 783.25 719.59 793.57
  Q 705.86 800.13 687.14 805.60
  Q 683.26 806.73 678.48 807.61
  Q 674.09 808.41 669.72 809.26
  L 664.80 808.79
  A 0.52 0.52 0.0 0 1 664.77 807.76
  C 680.23 805.57 693.41 801.33 708.75 795.74
  C 722.23 790.84 734.23 782.79 746.53 775.01
  C 750.30 772.62 756.01 767.04 761.55 765.02
  Z"
/>
<path fill="#263447" d="
  M 669.70 809.30
  L 669.86 810.39
  Q 667.53 810.49 665.23 810.79
  Q 662.42 811.15 660.62 811.19
  Q 638.31 811.74 616.00 811.66
  Q 620.96 811.41 625.86 810.63
  L 625.86 810.62
  Q 622.78 810.42 619.71 810.00
  Q 636.48 809.98 653.25 810.37
  Q 661.53 810.56 669.70 809.30
  Z"
/>
<path fill="#1f4b82" d="
  M 388.06 809.81
  L 535.46 809.81
  L 619.71 810.00
  Q 622.78 810.42 625.86 810.62
  L 625.86 810.63
  Q 620.96 811.41 616.00 811.66
  C 536.34 811.74 456.66 812.16 377.00 811.64
  Q 373.35 811.62 369.41 812.12
  Q 369.40 811.24 370.35 810.93
  Q 371.95 810.41 373.64 810.36
  Q 380.53 810.15 388.06 809.81
  Z"
/>
</svg>
